<svg width="490" height="560" viewBox="0 0 490 560" fill="none" xmlns="http://www.w3.org/2000/svg">
<path fill-rule="evenodd" clip-rule="evenodd" d="M152.104 69.3563C144.424 60.3148 139.226 49.2343 140.095 36.8183C142.597 1.04442 192.247 8.91423 201.905 26.9698C211.563 45.0254 210.416 90.825 197.934 94.052C192.956 95.339 182.352 92.1865 171.559 85.6618L178.333 133.731H138.333L152.104 69.3563Z" fill="#915B3C"/>
<path fill-rule="evenodd" clip-rule="evenodd" d="M149.03 77.4096C144.01 55.0078 129.708 39.7373 131.892 29.7246C133.348 23.0495 137.229 18.8985 143.535 17.2716C146.797 4.03785 157.316 -1.59099 175.093 0.385107C201.758 3.34925 218.032 14.456 211.004 38.8956C204.543 38.8956 196.744 36.5521 185.959 40.5672C182.537 41.8412 180.09 45.7919 178.617 52.4193H173.743C169.013 44.5544 164.349 41.6642 159.751 43.7489C155.154 45.8335 154.108 50.8971 156.616 58.9397L154.215 77.4096H149.03Z" fill="#191847"/>
<path fill-rule="evenodd" clip-rule="evenodd" d="M26.6667 342.687H218.333C233.061 342.687 245 354.661 245 369.433V523.224C245 537.995 233.061 549.97 218.333 549.97H26.6667C11.9391 549.97 6.10352e-05 537.995 6.10352e-05 523.224V369.433C6.10352e-05 354.661 11.9391 342.687 26.6667 342.687ZM53.3334 389.492C49.6515 389.492 46.6667 392.486 46.6667 396.179V496.478C46.6667 500.17 49.6515 503.164 53.3334 503.164H191.667C195.349 503.164 198.333 500.17 198.333 496.478V396.179C198.333 392.486 195.349 389.492 191.667 389.492H53.3334Z" fill="#C5CFD6"/>
<path fill-rule="evenodd" clip-rule="evenodd" d="M410.265 541.612C377.405 501.366 355.171 471.529 343.564 452.102C323.689 418.838 307.422 389.239 302.288 377.932C290.047 350.97 330.47 338.345 339.618 350.921C353.465 369.955 383.037 429.851 428.333 530.608L410.265 541.612Z" fill="#B28B67"/>
<path fill-rule="evenodd" clip-rule="evenodd" d="M342.929 529.91L281.775 375.512C268.696 347.366 331.86 328.866 341.472 341.964C363.295 371.702 415.165 489.012 421.667 497.872L342.929 529.91Z" fill="#2F3676"/>
<path fill-rule="evenodd" clip-rule="evenodd" d="M180.055 498.947C191.968 481.518 235.297 422.883 258.898 398.622C265.68 391.65 272.298 384.958 278.556 378.723C297.16 360.188 334.206 391.341 315.637 408.223C269.392 450.265 201.918 507.021 196.281 512.081C188.38 519.174 172.568 509.9 180.055 498.947Z" fill="#915B3C"/>
<path fill-rule="evenodd" clip-rule="evenodd" d="M182.841 491.074C178.737 494.462 176.068 497.229 174.832 499.376C173.329 501.986 171.57 506.047 169.554 511.558C172.574 513.306 199.71 529.02 250.963 558.699C257.117 552.91 258.076 548.416 253.84 545.217C249.604 542.018 246.108 539.32 243.353 537.124L215.253 498.294C214.713 497.547 213.671 497.381 212.926 497.923C212.913 497.932 212.9 497.942 212.888 497.952L207.049 502.461C201.693 501.992 197.696 500.994 195.058 499.466C192.915 498.225 190.455 495.643 187.677 491.719C186.612 490.214 184.531 489.86 183.03 490.928C182.965 490.975 182.902 491.023 182.841 491.074Z" fill="#E4E4E4"/>
<path fill-rule="evenodd" clip-rule="evenodd" d="M396.13 535.597C394.266 540.59 393.333 544.325 393.333 546.804C393.333 549.818 393.834 554.217 394.836 560C398.322 560 429.656 560 488.839 560C491.281 551.9 489.871 547.527 484.608 546.882C479.345 546.236 474.973 545.653 471.492 545.132L427.8 525.596C426.959 525.22 425.974 525.599 425.599 526.442C425.593 526.457 425.587 526.471 425.581 526.486L422.772 533.319C417.9 535.599 413.941 536.739 410.895 536.739C408.42 536.739 405.002 535.736 400.641 533.731C398.967 532.962 396.989 533.699 396.222 535.377C396.189 535.449 396.158 535.523 396.13 535.597Z" fill="#E4E4E4"/>
<path fill-rule="evenodd" clip-rule="evenodd" d="M259.77 383.224C208.942 374.919 174.897 369.239 157.634 366.187C108.429 357.484 94.0803 330.927 102.564 272.983H193.224C205.221 276.458 255.351 297.949 343.612 337.457C359.492 345.364 356.535 368.676 353.632 376.357C353.514 376.67 326.743 422.679 273.32 514.385L199.157 466.999L259.909 388.808C261.514 385.566 261.467 383.705 259.77 383.224Z" fill="#5C63AB"/>
<path fill-rule="evenodd" clip-rule="evenodd" d="M266.302 251.1L319.466 290.255C333.885 294.158 345.932 299.013 355.606 304.821C357.891 306.91 360.653 311.139 351.176 310.408C341.698 309.677 331.697 309.336 330.389 312.578C329.081 315.821 334.817 319.698 332.173 324.073C330.411 326.989 322.085 319.676 307.196 302.134L254.55 280.238L266.302 251.1ZM62.1801 252.451L97.0091 252.588C75.5038 322.218 63.8942 359.164 62.1801 363.424C58.3236 373.01 66.4846 387.61 69.9745 395.455C58.6078 400.557 59.8189 381.664 45.4801 388.355C32.3923 394.462 22.4364 405.528 7.31531 396.17C5.45626 395.019 3.41904 390.687 8.34121 387.302C20.6041 378.868 38.2757 364.108 40.6635 359.249C43.9195 352.624 51.0918 317.025 62.1801 252.451Z" fill="#915B3C"/>
<path fill-rule="evenodd" clip-rule="evenodd" d="M161.159 105.868L175.571 103.389C229.043 149.719 251.006 238.725 316.55 285.875L300.774 305.488C187.067 291.368 158.884 182.802 161.159 105.868Z" fill="#E87613"/>
<path fill-rule="evenodd" clip-rule="evenodd" d="M98.3335 287.522C156.12 287.522 198.626 287.522 225.853 287.522C231.679 287.522 230.582 279.083 229.739 274.825C220.018 225.678 182.069 172.699 182.069 102.74L145.286 96.9548C114.863 146.032 104.342 206.455 98.3335 287.522Z" fill="#DDE3E9"/>
<path fill-rule="evenodd" clip-rule="evenodd" d="M99.3583 145.195C94.0161 143.655 89.7857 140.063 86.6669 134.418C73.2229 110.087 78.0782 96.6915 92.4456 92.2882C106.813 87.8848 119.626 96.9549 142.517 96.9549C143.762 96.9549 144.902 97.0332 145.938 97.1898L157.453 97.8488C190.49 210.15 199.602 285.076 184.787 322.627H84.42C78.4733 336.534 72.7828 348.236 67.3486 357.731H40.0003C37.4264 274.261 57.2124 203.416 99.3583 145.195Z" fill="#FF9B21"/>
<path fill-rule="evenodd" clip-rule="evenodd" d="M106.276 264.951C109.432 291.441 114.563 310.666 121.667 322.627H84.4199C91.3565 306.404 98.6417 287.179 106.276 264.951Z" fill="black" fill-opacity="0.1"/>
</svg>
