<svg width="1920" height="3135" viewBox="0 0 1920 3135" fill="none" xmlns="http://www.w3.org/2000/svg">
<mask id="mask0_763_342" style="mask-type:alpha" maskUnits="userSpaceOnUse" x="0" y="0" width="1920" height="3135">
<rect width="1920" height="3135" fill="#D9D9D9"/>
</mask>
<g mask="url(#mask0_763_342)">
<path fill-rule="evenodd" clip-rule="evenodd" d="M2088.53 -147.696L2447.2 -143.506C2453.9 -143.455 2460.52 -142.086 2466.68 -139.477C2472.84 -136.869 2478.42 -133.072 2483.1 -128.307C2487.78 -123.542 2491.47 -117.903 2493.94 -111.714C2496.42 -105.525 2497.64 -98.9102 2497.54 -92.25L2493.32 264.517C2493.27 271.178 2491.9 277.763 2489.27 283.892C2486.65 290.021 2482.83 295.573 2478.04 300.228C2473.25 304.882 2467.58 308.547 2461.36 311.011C2455.14 313.475 2448.49 314.689 2441.79 314.584C2435.1 314.533 2428.48 313.163 2422.32 310.555C2416.15 307.946 2410.57 304.15 2405.89 299.385C2401.21 294.62 2397.53 288.98 2395.05 282.792C2392.58 276.603 2391.36 269.988 2391.46 263.328L2395.44 -43.1315L2087.34 -46.3735C2073.83 -46.5313 2060.94 -52.0201 2051.5 -61.6325C2046.82 -66.392 2043.14 -72.0207 2040.65 -78.197C2038.16 -84.3734 2036.92 -90.9765 2037 -97.6294C2037.16 -111.066 2042.68 -123.889 2052.34 -133.278C2057.13 -137.927 2062.79 -141.593 2069 -144.067C2075.21 -146.541 2081.84 -147.774 2088.53 -147.696ZM2286.43 12.7029L1927.76 8.51335C1921.07 8.43521 1914.43 9.66824 1908.22 12.142C1902.01 14.6158 1896.35 18.2819 1891.57 22.931C1881.91 32.3202 1876.39 45.1433 1876.23 58.5794C1876.15 65.2323 1877.39 71.8355 1879.88 78.0118C1882.36 84.1882 1886.05 89.8168 1890.72 94.5764C1900.16 104.189 1913.05 109.678 1926.56 109.835L2234.66 113.077L2230.69 419.537C2230.58 426.197 2231.8 432.812 2234.28 439.001C2236.76 445.189 2240.44 450.829 2245.12 455.594C2249.8 460.359 2255.38 464.155 2261.54 466.764C2267.7 469.372 2274.32 470.742 2281.02 470.792C2287.72 470.898 2294.37 469.684 2300.59 467.22C2306.81 464.756 2312.48 461.091 2317.27 456.437C2322.06 451.782 2325.88 446.23 2328.5 440.101C2331.12 433.972 2332.5 427.387 2332.55 420.726L2336.76 63.9589C2336.87 57.2986 2335.65 50.6834 2333.17 44.4948C2330.69 38.3062 2327.01 32.6667 2322.33 27.9017C2317.65 23.1366 2312.07 19.3403 2305.91 16.7317C2299.75 14.123 2293.13 12.7538 2286.43 12.7029ZM2125.66 168.911L1766.98 164.722C1760.3 164.644 1753.66 165.877 1747.45 168.35C1741.24 170.824 1735.58 174.49 1730.8 179.139C1721.13 188.528 1715.61 201.352 1715.46 214.788C1715.38 221.441 1716.62 228.044 1719.1 234.22C1721.59 240.397 1725.28 246.025 1729.95 250.785C1739.39 260.397 1752.28 265.886 1765.79 266.044L2073.89 269.286L2069.91 575.745C2069.81 582.405 2071.03 589.02 2073.51 595.209C2075.98 601.397 2079.67 607.037 2084.35 611.802C2089.03 616.567 2094.61 620.363 2100.77 622.972C2106.93 625.581 2113.55 626.95 2120.25 627.001C2126.94 627.106 2133.59 625.892 2139.81 623.428C2146.04 620.964 2151.71 617.299 2156.5 612.645C2161.29 607.99 2165.1 602.439 2167.73 596.309C2170.35 590.18 2171.73 583.596 2171.78 576.935L2175.99 220.167C2176.09 213.507 2174.87 206.892 2172.4 200.703C2169.92 194.515 2166.23 188.875 2161.56 184.11C2156.88 179.345 2151.29 175.549 2145.13 172.94C2138.97 170.331 2132.35 168.962 2125.66 168.911ZM1643.33 637.537L1284.66 633.348C1277.98 633.27 1271.34 634.503 1265.13 636.976C1258.92 639.45 1253.26 643.116 1248.47 647.765C1238.81 657.155 1233.29 669.978 1233.13 683.414C1233.06 690.067 1234.3 696.67 1236.78 702.846C1239.27 709.023 1242.95 714.651 1247.63 719.411C1257.07 729.023 1269.96 734.512 1283.47 734.67L1591.57 737.912L1587.59 1044.37C1587.49 1051.03 1588.71 1057.65 1591.18 1063.83C1593.66 1070.02 1597.35 1075.66 1602.03 1080.43C1606.7 1085.19 1612.29 1088.99 1618.45 1091.6C1624.61 1094.21 1631.23 1095.58 1637.93 1095.63C1644.62 1095.73 1651.27 1094.52 1657.49 1092.05C1663.72 1089.59 1669.38 1085.93 1674.18 1081.27C1678.97 1076.62 1682.78 1071.06 1685.4 1064.94C1688.03 1058.81 1689.4 1052.22 1689.45 1045.56L1693.67 688.793C1693.77 682.133 1692.55 675.518 1690.08 669.329C1687.6 663.141 1683.91 657.501 1679.23 652.736C1674.56 647.971 1668.97 644.175 1662.81 641.566C1656.65 638.957 1650.03 637.588 1643.33 637.537ZM802.341 1101.97L1161.01 1106.16C1167.71 1106.21 1174.33 1107.58 1180.49 1110.19C1186.65 1112.8 1192.23 1116.6 1196.91 1121.36C1201.59 1126.13 1205.28 1131.77 1207.75 1137.95C1210.23 1144.14 1211.45 1150.76 1211.34 1157.42L1207.13 1514.19C1207.08 1520.85 1205.7 1527.43 1203.08 1533.56C1200.46 1539.69 1196.64 1545.24 1191.85 1549.9C1187.06 1554.55 1181.39 1558.22 1175.17 1560.68C1168.95 1563.14 1162.3 1564.36 1155.6 1564.25C1148.91 1564.2 1142.29 1562.83 1136.13 1560.22C1129.96 1557.62 1124.38 1553.82 1119.7 1549.05C1115.02 1544.29 1111.34 1538.65 1108.86 1532.46C1106.38 1526.27 1105.16 1519.66 1105.27 1513L1109.25 1206.54L801.145 1203.3C787.637 1203.14 774.746 1197.65 765.306 1188.04C760.633 1183.28 756.947 1177.65 754.46 1171.47C751.973 1165.3 750.733 1158.69 750.812 1152.04C750.971 1138.6 756.489 1125.78 766.152 1116.39C770.937 1111.74 776.596 1108.08 782.805 1105.6C789.015 1103.13 795.653 1101.9 802.341 1101.97ZM1445.44 477.139L1804.11 481.328C1810.8 481.379 1817.42 482.748 1823.59 485.357C1829.75 487.966 1835.33 491.762 1840.01 496.527C1844.69 501.292 1848.37 506.932 1850.85 513.12C1853.33 519.309 1854.55 525.924 1854.44 532.584L1850.23 889.352C1850.18 896.013 1848.8 902.598 1846.18 908.727C1843.56 914.856 1839.74 920.407 1834.95 925.062C1830.16 929.716 1824.49 933.381 1818.27 935.845C1812.05 938.309 1805.39 939.523 1798.7 939.418C1792 939.367 1785.38 937.998 1779.22 935.389C1773.06 932.78 1767.48 928.984 1762.8 924.219C1758.12 919.454 1754.43 913.815 1751.96 907.626C1749.48 901.437 1748.26 894.822 1748.37 888.162L1752.34 581.703L1444.24 578.461C1430.73 578.303 1417.84 572.814 1408.4 563.202C1403.73 558.442 1400.04 552.814 1397.56 546.637C1395.07 540.461 1393.83 533.858 1393.91 527.205C1394.07 513.769 1399.58 500.946 1409.25 491.556C1414.03 486.907 1419.69 483.241 1425.9 480.767C1432.11 478.294 1438.75 477.061 1445.44 477.139ZM1321.79 949.954L963.116 945.765C956.427 945.686 949.789 946.919 943.58 949.393C937.37 951.867 931.712 955.533 926.927 960.182C917.263 969.571 911.745 982.395 911.586 995.831C911.508 1002.48 912.747 1009.09 915.234 1015.26C917.721 1021.44 921.407 1027.07 926.081 1031.83C935.52 1041.44 948.412 1046.93 961.919 1047.09L1270.02 1050.33L1266.04 1356.79C1265.94 1363.45 1267.16 1370.06 1269.64 1376.25C1272.11 1382.44 1275.8 1388.08 1280.48 1392.84C1285.16 1397.61 1290.74 1401.41 1296.9 1404.01C1303.06 1406.62 1309.68 1407.99 1316.38 1408.04C1323.07 1408.15 1329.72 1406.94 1335.95 1404.47C1342.17 1402.01 1347.84 1398.34 1352.63 1393.69C1357.42 1389.03 1361.23 1383.48 1363.86 1377.35C1366.48 1371.22 1367.86 1364.64 1367.91 1357.98L1372.12 1001.21C1372.23 994.55 1371 987.935 1368.53 981.746C1366.05 975.557 1362.37 969.918 1357.69 965.153C1353.01 960.388 1347.43 956.592 1341.26 953.983C1335.1 951.374 1328.48 950.005 1321.79 949.954ZM1964.88 325.12L1606.21 320.93C1599.52 320.852 1592.88 322.085 1586.68 324.559C1580.47 327.033 1574.81 330.699 1570.02 335.348C1560.36 344.737 1554.84 357.56 1554.68 370.996C1554.6 377.649 1555.84 384.252 1558.33 390.429C1560.82 396.605 1564.5 402.234 1569.18 406.994C1578.62 416.606 1591.51 422.095 1605.02 422.252L1913.12 425.494L1909.14 731.954C1909.03 738.614 1910.26 745.229 1912.73 751.418C1915.21 757.606 1918.89 763.246 1923.57 768.011C1928.25 772.776 1933.83 776.572 1940 779.181C1946.16 781.789 1952.78 783.159 1959.47 783.21C1966.17 783.315 1972.82 782.101 1979.04 779.637C1985.26 777.173 1990.93 773.508 1995.72 768.854C2000.51 764.199 2004.33 758.647 2006.95 752.518C2009.58 746.389 2010.95 739.804 2011 733.143L2015.21 376.376C2015.32 369.716 2014.1 363.1 2011.62 356.912C2009.15 350.723 2005.46 345.084 2000.78 340.319C1996.1 335.554 1990.52 331.757 1984.36 329.149C1978.2 326.54 1971.58 325.171 1964.88 325.12ZM1123.89 789.557L1482.56 793.746C1489.26 793.797 1495.88 795.166 1502.04 797.775C1508.2 800.384 1513.78 804.18 1518.46 808.945C1523.14 813.71 1526.82 819.35 1529.3 825.538C1531.78 831.727 1533 838.342 1532.89 845.002L1528.68 1201.77C1528.63 1208.43 1527.25 1215.02 1524.63 1221.14C1522.01 1227.27 1518.19 1232.83 1513.4 1237.48C1508.61 1242.13 1502.94 1245.8 1496.72 1248.26C1490.5 1250.73 1483.85 1251.94 1477.15 1251.84C1470.46 1251.78 1463.84 1250.42 1457.67 1247.81C1451.51 1245.2 1445.93 1241.4 1441.25 1236.64C1436.57 1231.87 1432.89 1226.23 1430.41 1220.04C1427.93 1213.86 1426.71 1207.24 1426.82 1200.58L1430.8 894.121L1122.69 890.879C1109.19 890.721 1096.29 885.232 1086.86 875.62C1082.18 870.86 1078.5 865.232 1076.01 859.055C1073.52 852.879 1072.28 846.276 1072.36 839.623C1072.52 826.187 1078.04 813.363 1087.7 803.974C1092.49 799.325 1098.14 795.659 1104.35 793.185C1110.56 790.712 1117.2 789.479 1123.89 789.557Z" fill="url(#paint0_linear_763_342)" fill-opacity="0.39"/>
<path fill-rule="evenodd" clip-rule="evenodd" d="M1914.53 1359.3L2273.2 1363.49C2279.9 1363.54 2286.52 1364.91 2292.68 1367.52C2298.84 1370.13 2304.42 1373.93 2309.1 1378.69C2313.78 1383.46 2317.47 1389.1 2319.94 1395.29C2322.42 1401.47 2323.64 1408.09 2323.54 1414.75L2319.32 1771.52C2319.27 1778.18 2317.9 1784.76 2315.27 1790.89C2312.65 1797.02 2308.83 1802.57 2304.04 1807.23C2299.25 1811.88 2293.58 1815.55 2287.36 1818.01C2281.14 1820.47 2274.49 1821.69 2267.79 1821.58C2261.1 1821.53 2254.48 1820.16 2248.32 1817.55C2242.15 1814.95 2236.57 1811.15 2231.89 1806.38C2227.21 1801.62 2223.53 1795.98 2221.05 1789.79C2218.58 1783.6 2217.36 1776.99 2217.46 1770.33L2221.44 1463.87L1913.34 1460.63C1899.83 1460.47 1886.94 1454.98 1877.5 1445.37C1872.82 1440.61 1869.14 1434.98 1866.65 1428.8C1864.16 1422.63 1862.92 1416.02 1863 1409.37C1863.16 1395.93 1868.68 1383.11 1878.34 1373.72C1883.13 1369.07 1888.79 1365.41 1895 1362.93C1901.21 1360.46 1907.84 1359.23 1914.53 1359.3ZM2112.43 1519.7L1753.76 1515.51C1747.07 1515.44 1740.43 1516.67 1734.22 1519.14C1728.01 1521.62 1722.35 1525.28 1717.57 1529.93C1707.91 1539.32 1702.39 1552.14 1702.23 1565.58C1702.15 1572.23 1703.39 1578.84 1705.88 1585.01C1708.36 1591.19 1712.05 1596.82 1716.72 1601.58C1726.16 1611.19 1739.05 1616.68 1752.56 1616.84L2060.66 1620.08L2056.69 1926.54C2056.58 1933.2 2057.8 1939.81 2060.28 1946C2062.76 1952.19 2066.44 1957.83 2071.12 1962.59C2075.8 1967.36 2081.38 1971.16 2087.54 1973.76C2093.7 1976.37 2100.32 1977.74 2107.02 1977.79C2113.72 1977.9 2120.37 1976.68 2126.59 1974.22C2132.81 1971.76 2138.48 1968.09 2143.27 1963.44C2148.06 1958.78 2151.88 1953.23 2154.5 1947.1C2157.12 1940.97 2158.5 1934.39 2158.55 1927.73L2162.76 1570.96C2162.87 1564.3 2161.65 1557.68 2159.17 1551.49C2156.69 1545.31 2153.01 1539.67 2148.33 1534.9C2143.65 1530.14 2138.07 1526.34 2131.91 1523.73C2125.75 1521.12 2119.13 1519.75 2112.43 1519.7ZM1951.66 1675.91L1592.98 1671.72C1586.3 1671.64 1579.66 1672.88 1573.45 1675.35C1567.24 1677.82 1561.58 1681.49 1556.8 1686.14C1547.13 1695.53 1541.61 1708.35 1541.46 1721.79C1541.38 1728.44 1542.62 1735.04 1545.1 1741.22C1547.59 1747.4 1551.28 1753.03 1555.95 1757.78C1565.39 1767.4 1578.28 1772.89 1591.79 1773.04L1899.89 1776.29L1895.91 2082.74C1895.81 2089.41 1897.03 2096.02 1899.51 2102.21C1901.98 2108.4 1905.67 2114.04 1910.35 2118.8C1915.03 2123.57 1920.61 2127.36 1926.77 2129.97C1932.93 2132.58 1939.55 2133.95 1946.25 2134C1952.94 2134.11 1959.59 2132.89 1965.81 2130.43C1972.04 2127.96 1977.71 2124.3 1982.5 2119.64C1987.29 2114.99 1991.1 2109.44 1993.73 2103.31C1996.35 2097.18 1997.73 2090.6 1997.78 2083.93L2001.99 1727.17C2002.09 1720.51 2000.87 1713.89 1998.4 1707.7C1995.92 1701.51 1992.23 1695.88 1987.56 1691.11C1982.88 1686.34 1977.29 1682.55 1971.13 1679.94C1964.97 1677.33 1958.35 1675.96 1951.66 1675.91ZM1469.33 2144.54L1110.66 2140.35C1103.98 2140.27 1097.34 2141.5 1091.13 2143.98C1084.92 2146.45 1079.26 2150.12 1074.47 2154.77C1064.81 2164.15 1059.29 2176.98 1059.13 2190.41C1059.06 2197.07 1060.3 2203.67 1062.78 2209.85C1065.27 2216.02 1068.95 2221.65 1073.63 2226.41C1083.07 2236.02 1095.96 2241.51 1109.47 2241.67L1417.57 2244.91L1413.59 2551.37C1413.49 2558.03 1414.71 2564.65 1417.18 2570.83C1419.66 2577.02 1423.35 2582.66 1428.03 2587.43C1432.7 2592.19 1438.29 2595.99 1444.45 2598.6C1450.61 2601.21 1457.23 2602.58 1463.93 2602.63C1470.62 2602.73 1477.27 2601.52 1483.49 2599.05C1489.72 2596.59 1495.38 2592.93 1500.18 2588.27C1504.97 2583.62 1508.78 2578.06 1511.4 2571.94C1514.03 2565.81 1515.4 2559.22 1515.45 2552.56L1519.67 2195.79C1519.77 2189.13 1518.55 2182.52 1516.08 2176.33C1513.6 2170.14 1509.91 2164.5 1505.23 2159.74C1500.56 2154.97 1494.97 2151.17 1488.81 2148.57C1482.65 2145.96 1476.03 2144.59 1469.33 2144.54ZM628.341 2608.97L987.012 2613.16C993.708 2613.21 1000.33 2614.58 1006.49 2617.19C1012.65 2619.8 1018.23 2623.6 1022.91 2628.36C1027.59 2633.13 1031.28 2638.77 1033.75 2644.96C1036.23 2651.14 1037.45 2657.76 1037.34 2664.42L1033.13 3021.19C1033.08 3027.85 1031.7 3034.43 1029.08 3040.56C1026.46 3046.69 1022.64 3052.24 1017.85 3056.9C1013.06 3061.55 1007.39 3065.22 1001.17 3067.68C994.95 3070.14 988.299 3071.36 981.603 3071.25C974.907 3071.2 968.287 3069.83 962.125 3067.22C955.964 3064.62 950.382 3060.82 945.703 3056.05C941.024 3051.29 937.339 3045.65 934.862 3039.46C932.385 3033.27 931.164 3026.66 931.27 3020L935.247 2713.54L627.145 2710.3C613.637 2710.14 600.746 2704.65 591.306 2695.04C586.633 2690.28 582.947 2684.65 580.46 2678.47C577.973 2672.3 576.733 2665.69 576.812 2659.04C576.971 2645.6 582.489 2632.78 592.152 2623.39C596.937 2618.74 602.596 2615.08 608.805 2612.6C615.015 2610.13 621.653 2608.9 628.341 2608.97ZM1271.44 1984.14L1630.11 1988.33C1636.8 1988.38 1643.42 1989.75 1649.59 1992.36C1655.75 1994.97 1661.33 1998.76 1666.01 2003.53C1670.69 2008.29 1674.37 2013.93 1676.85 2020.12C1679.33 2026.31 1680.55 2032.92 1680.44 2039.58L1676.23 2396.35C1676.18 2403.01 1674.8 2409.6 1672.18 2415.73C1669.56 2421.86 1665.74 2427.41 1660.95 2432.06C1656.16 2436.72 1650.49 2440.38 1644.27 2442.85C1638.05 2445.31 1631.39 2446.52 1624.7 2446.42C1618 2446.37 1611.38 2445 1605.22 2442.39C1599.06 2439.78 1593.48 2435.98 1588.8 2431.22C1584.12 2426.45 1580.43 2420.81 1577.96 2414.63C1575.48 2408.44 1574.26 2401.82 1574.37 2395.16L1578.34 2088.7L1270.24 2085.46C1256.73 2085.3 1243.84 2079.81 1234.4 2070.2C1229.73 2065.44 1226.04 2059.81 1223.56 2053.64C1221.07 2047.46 1219.83 2040.86 1219.91 2034.2C1220.07 2020.77 1225.58 2007.95 1235.25 1998.56C1240.03 1993.91 1245.69 1990.24 1251.9 1987.77C1258.11 1985.29 1264.75 1984.06 1271.44 1984.14ZM1147.79 2456.95L789.116 2452.76C782.427 2452.69 775.789 2453.92 769.58 2456.39C763.37 2458.87 757.712 2462.53 752.927 2467.18C743.263 2476.57 737.745 2489.39 737.586 2502.83C737.508 2509.48 738.747 2516.09 741.234 2522.26C743.721 2528.44 747.407 2534.07 752.081 2538.83C761.52 2548.44 774.412 2553.93 787.919 2554.09L1096.02 2557.33L1092.04 2863.79C1091.94 2870.45 1093.16 2877.06 1095.64 2883.25C1098.11 2889.44 1101.8 2895.08 1106.48 2899.84C1111.16 2904.61 1116.74 2908.41 1122.9 2911.01C1129.06 2913.62 1135.68 2914.99 1142.38 2915.04C1149.07 2915.15 1155.72 2913.94 1161.95 2911.47C1168.17 2909.01 1173.84 2905.34 1178.63 2900.69C1183.42 2896.03 1187.23 2890.48 1189.86 2884.35C1192.48 2878.22 1193.86 2871.64 1193.91 2864.98L1198.12 2508.21C1198.23 2501.55 1197 2494.93 1194.53 2488.75C1192.05 2482.56 1188.37 2476.92 1183.69 2472.15C1179.01 2467.39 1173.43 2463.59 1167.26 2460.98C1161.1 2458.37 1154.48 2457.01 1147.79 2456.95ZM1790.88 1832.12L1432.21 1827.93C1425.52 1827.85 1418.88 1829.09 1412.68 1831.56C1406.47 1834.03 1400.81 1837.7 1396.02 1842.35C1386.36 1851.74 1380.84 1864.56 1380.68 1878C1380.6 1884.65 1381.84 1891.25 1384.33 1897.43C1386.82 1903.61 1390.5 1909.23 1395.18 1913.99C1404.62 1923.61 1417.51 1929.09 1431.02 1929.25L1739.12 1932.49L1735.14 2238.95C1735.03 2245.61 1736.26 2252.23 1738.73 2258.42C1741.21 2264.61 1744.89 2270.25 1749.57 2275.01C1754.25 2279.78 1759.83 2283.57 1766 2286.18C1772.16 2288.79 1778.78 2290.16 1785.47 2290.21C1792.17 2290.32 1798.82 2289.1 1805.04 2286.64C1811.26 2284.17 1816.93 2280.51 1821.72 2275.85C1826.51 2271.2 1830.33 2265.65 1832.95 2259.52C1835.58 2253.39 1836.95 2246.8 1837 2240.14L1841.21 1883.38C1841.32 1876.72 1840.1 1870.1 1837.62 1863.91C1835.15 1857.72 1831.46 1852.08 1826.78 1847.32C1822.1 1842.55 1816.52 1838.76 1810.36 1836.15C1804.2 1833.54 1797.58 1832.17 1790.88 1832.12ZM949.89 2296.56L1308.56 2300.75C1315.26 2300.8 1321.88 2302.17 1328.04 2304.78C1334.2 2307.38 1339.78 2311.18 1344.46 2315.95C1349.14 2320.71 1352.82 2326.35 1355.3 2332.54C1357.78 2338.73 1359 2345.34 1358.89 2352L1354.68 2708.77C1354.63 2715.43 1353.25 2722.02 1350.63 2728.14C1348.01 2734.27 1344.19 2739.83 1339.4 2744.48C1334.61 2749.13 1328.94 2752.8 1322.72 2755.26C1316.5 2757.73 1309.85 2758.94 1303.15 2758.84C1296.46 2758.78 1289.84 2757.42 1283.67 2754.81C1277.51 2752.2 1271.93 2748.4 1267.25 2743.64C1262.57 2738.87 1258.89 2733.23 1256.41 2727.04C1253.93 2720.86 1252.71 2714.24 1252.82 2707.58L1256.8 2401.12L948.694 2397.88C935.186 2397.72 922.295 2392.23 912.855 2382.62C908.181 2377.86 904.496 2372.23 902.009 2366.06C899.522 2359.88 898.282 2353.28 898.361 2346.62C898.519 2333.19 904.038 2320.36 913.701 2310.97C918.486 2306.33 924.145 2302.66 930.354 2300.19C936.563 2297.71 943.202 2296.48 949.89 2296.56Z" fill="url(#paint1_linear_763_342)" fill-opacity="0.39"/>
<path fill-rule="evenodd" clip-rule="evenodd" d="M108.532 864.304L467.202 868.494C473.899 868.545 480.519 869.914 486.681 872.523C492.842 875.131 498.424 878.928 503.103 883.693C507.782 888.458 511.467 894.097 513.944 900.286C516.421 906.475 517.642 913.09 517.535 919.75L513.324 1276.52C513.272 1283.18 511.896 1289.76 509.273 1295.89C506.651 1302.02 502.834 1307.57 498.044 1312.23C493.253 1316.88 487.584 1320.55 481.362 1323.01C475.141 1325.47 468.49 1326.69 461.794 1326.58C455.098 1326.53 448.478 1325.16 442.316 1322.55C436.154 1319.95 430.573 1316.15 425.894 1311.38C421.214 1306.62 417.53 1300.98 415.053 1294.79C412.576 1288.6 411.355 1281.99 411.461 1275.33L415.438 968.869L107.336 965.626C93.8282 965.469 80.9367 959.98 71.4974 950.368C66.8235 945.608 63.1379 939.979 60.651 933.803C58.164 927.627 56.9243 921.023 57.0029 914.371C57.1615 900.934 62.6796 888.111 72.3432 878.722C77.1282 874.073 82.7868 870.407 88.9961 867.933C95.2054 865.459 101.844 864.226 108.532 864.304ZM306.429 1024.7L-52.2412 1020.51C-58.9296 1020.44 -65.568 1021.67 -71.7773 1024.14C-77.9866 1026.62 -83.6452 1030.28 -88.4303 1034.93C-98.0938 1044.32 -103.612 1057.14 -103.77 1070.58C-103.849 1077.23 -102.609 1083.84 -100.122 1090.01C-97.6355 1096.19 -93.9499 1101.82 -89.276 1106.58C-79.8367 1116.19 -66.9452 1121.68 -53.4375 1121.84L254.665 1125.08L250.688 1431.54C250.582 1438.2 251.802 1444.81 254.28 1451C256.757 1457.19 260.441 1462.83 265.12 1467.59C269.8 1472.36 275.381 1476.16 281.543 1478.76C287.704 1481.37 294.324 1482.74 301.021 1482.79C307.717 1482.9 314.367 1481.68 320.589 1479.22C326.81 1476.76 332.48 1473.09 337.27 1468.44C342.061 1463.78 345.877 1458.23 348.5 1452.1C351.122 1445.97 352.499 1439.39 352.55 1432.73L356.762 1075.96C356.868 1069.3 355.648 1062.68 353.17 1056.49C350.693 1050.31 347.009 1044.67 342.33 1039.9C337.65 1035.14 332.069 1031.34 325.907 1028.73C319.745 1026.12 313.125 1024.75 306.429 1024.7ZM145.655 1180.91L-213.015 1176.72C-219.704 1176.64 -226.342 1177.88 -232.551 1180.35C-238.761 1182.82 -244.419 1186.49 -249.204 1191.14C-258.868 1200.53 -264.386 1213.35 -264.545 1226.79C-264.623 1233.44 -263.384 1240.04 -260.897 1246.22C-258.41 1252.4 -254.724 1258.03 -250.05 1262.78C-240.611 1272.4 -227.719 1277.89 -214.212 1278.04L93.8905 1281.29L89.9137 1587.74C89.8077 1594.41 91.0283 1601.02 93.5055 1607.21C95.9825 1613.4 99.667 1619.04 104.346 1623.8C109.025 1628.57 114.607 1632.36 120.769 1634.97C126.93 1637.58 133.55 1638.95 140.247 1639C146.943 1639.11 153.593 1637.89 159.815 1635.43C166.036 1632.96 171.706 1629.3 176.496 1624.64C181.287 1619.99 185.103 1614.44 187.726 1608.31C190.348 1602.18 191.725 1595.6 191.776 1588.93L195.988 1232.17C196.094 1225.51 194.873 1218.89 192.396 1212.7C189.919 1206.51 186.235 1200.88 181.556 1196.11C176.876 1191.34 171.295 1187.55 165.133 1184.94C158.971 1182.33 152.351 1180.96 145.655 1180.91ZM-336.666 1649.54L-695.337 1645.35C-702.025 1645.27 -708.663 1646.5 -714.873 1648.98C-721.082 1651.45 -726.741 1655.12 -731.526 1659.77C-741.189 1669.15 -746.707 1681.98 -746.866 1695.41C-746.944 1702.07 -745.705 1708.67 -743.218 1714.85C-740.731 1721.02 -737.045 1726.65 -732.371 1731.41C-722.932 1741.02 -710.041 1746.51 -696.533 1746.67L-388.431 1749.91L-392.408 2056.37C-392.514 2063.03 -391.293 2069.65 -388.816 2075.83C-386.339 2082.02 -382.654 2087.66 -377.975 2092.43C-373.296 2097.19 -367.714 2100.99 -361.553 2103.6C-355.391 2106.21 -348.771 2107.58 -342.075 2107.63C-335.379 2107.73 -328.728 2106.52 -322.507 2104.05C-316.285 2101.59 -310.616 2097.93 -305.825 2093.27C-301.035 2088.62 -297.218 2083.06 -294.595 2076.94C-291.973 2070.81 -290.596 2064.22 -290.545 2057.56L-286.333 1700.79C-286.227 1694.13 -287.448 1687.52 -289.925 1681.33C-292.402 1675.14 -296.087 1669.5 -300.766 1664.74C-305.445 1659.97 -311.027 1656.17 -317.188 1653.57C-323.35 1650.96 -329.97 1649.59 -336.666 1649.54ZM-1177.66 2113.97L-818.989 2118.16C-812.292 2118.21 -805.672 2119.58 -799.51 2122.19C-793.349 2124.8 -787.767 2128.6 -783.088 2133.36C-778.409 2138.13 -774.724 2143.77 -772.247 2149.96C-769.77 2156.14 -768.549 2162.76 -768.656 2169.42L-772.867 2526.19C-772.919 2532.85 -774.295 2539.43 -776.918 2545.56C-779.54 2551.69 -783.357 2557.24 -788.147 2561.9C-792.938 2566.55 -798.607 2570.22 -804.829 2572.68C-811.051 2575.14 -817.701 2576.36 -824.397 2576.25C-831.093 2576.2 -837.713 2574.83 -843.875 2572.22C-850.036 2569.62 -855.618 2565.82 -860.297 2561.05C-864.977 2556.29 -868.661 2550.65 -871.138 2544.46C-873.615 2538.27 -874.836 2531.66 -874.73 2525L-870.753 2218.54L-1178.86 2215.3C-1192.36 2215.14 -1205.25 2209.65 -1214.69 2200.04C-1219.37 2195.28 -1223.05 2189.65 -1225.54 2183.47C-1228.03 2177.3 -1229.27 2170.69 -1229.19 2164.04C-1229.03 2150.6 -1223.51 2137.78 -1213.85 2128.39C-1209.06 2123.74 -1203.4 2120.08 -1197.19 2117.6C-1190.99 2115.13 -1184.35 2113.9 -1177.66 2113.97ZM-534.563 1489.14L-175.893 1493.33C-169.197 1493.38 -162.576 1494.75 -156.415 1497.36C-150.253 1499.97 -144.672 1503.76 -139.992 1508.53C-135.313 1513.29 -131.629 1518.93 -129.152 1525.12C-126.674 1531.31 -125.454 1537.92 -125.56 1544.58L-129.772 1901.35C-129.823 1908.01 -131.199 1914.6 -133.822 1920.73C-136.444 1926.86 -140.261 1932.41 -145.052 1937.06C-149.842 1941.72 -155.512 1945.38 -161.733 1947.85C-167.955 1950.31 -174.605 1951.52 -181.301 1951.42C-187.997 1951.37 -194.617 1950 -200.779 1947.39C-206.941 1944.78 -212.522 1940.98 -217.202 1936.22C-221.881 1931.45 -225.565 1925.81 -228.042 1919.63C-230.519 1913.44 -231.74 1906.82 -231.634 1900.16L-227.657 1593.7L-535.759 1590.46C-549.267 1590.3 -562.159 1584.81 -571.598 1575.2C-576.272 1570.44 -579.957 1564.81 -582.444 1558.64C-584.931 1552.46 -586.171 1545.86 -586.092 1539.2C-585.934 1525.77 -580.416 1512.95 -570.752 1503.56C-565.967 1498.91 -560.308 1495.24 -554.099 1492.77C-547.89 1490.29 -541.252 1489.06 -534.563 1489.14ZM-658.214 1961.95L-1016.88 1957.76C-1023.57 1957.69 -1030.21 1958.92 -1036.42 1961.39C-1042.63 1963.87 -1048.29 1967.53 -1053.07 1972.18C-1062.74 1981.57 -1068.26 1994.39 -1068.41 2007.83C-1068.49 2014.48 -1067.25 2021.09 -1064.77 2027.26C-1062.28 2033.44 -1058.59 2039.07 -1053.92 2043.83C-1044.48 2053.44 -1031.59 2058.93 -1018.08 2059.09L-709.979 2062.33L-713.955 2368.79C-714.061 2375.45 -712.841 2382.06 -710.364 2388.25C-707.887 2394.44 -704.202 2400.08 -699.523 2404.84C-694.844 2409.61 -689.262 2413.41 -683.1 2416.01C-676.939 2418.62 -670.319 2419.99 -663.622 2420.04C-656.927 2420.15 -650.276 2418.94 -644.055 2416.47C-637.833 2414.01 -632.163 2410.34 -627.373 2405.69C-622.582 2401.03 -618.766 2395.48 -616.143 2389.35C-613.521 2383.22 -612.144 2376.64 -612.093 2369.98L-607.881 2013.21C-607.775 2006.55 -608.996 1999.93 -611.473 1993.75C-613.95 1987.56 -617.634 1981.92 -622.314 1977.15C-626.993 1972.39 -632.574 1968.59 -638.736 1965.98C-644.898 1963.37 -651.518 1962.01 -658.214 1961.95ZM-15.1185 1337.12L-373.789 1332.93C-380.477 1332.85 -387.115 1334.09 -393.325 1336.56C-399.534 1339.03 -405.193 1342.7 -409.978 1347.35C-419.641 1356.74 -425.159 1369.56 -425.318 1383C-425.397 1389.65 -424.157 1396.25 -421.67 1402.43C-419.183 1408.61 -415.497 1414.23 -410.824 1418.99C-401.384 1428.61 -388.493 1434.09 -374.985 1434.25L-66.8829 1437.49L-70.8597 1743.95C-70.9658 1750.61 -69.7451 1757.23 -67.268 1763.42C-64.7909 1769.61 -61.1064 1775.25 -56.4272 1780.01C-51.7479 1784.78 -46.1664 1788.57 -40.0047 1791.18C-33.843 1793.79 -27.223 1795.16 -20.5267 1795.21C-13.8308 1795.32 -7.18038 1794.1 -0.958784 1791.64C5.26282 1789.17 10.9324 1785.51 15.7228 1780.85C20.5133 1776.2 24.33 1770.65 26.9525 1764.52C29.5749 1758.39 30.9515 1751.8 31.0027 1745.14L35.2146 1388.38C35.3207 1381.72 34.1001 1375.1 31.6229 1368.91C29.1458 1362.72 25.4614 1357.08 20.7821 1352.32C16.1028 1347.55 10.5214 1343.76 4.35966 1341.15C-1.80205 1338.54 -8.42213 1337.17 -15.1185 1337.12ZM-856.11 1801.56L-497.44 1805.75C-490.743 1805.8 -484.123 1807.17 -477.962 1809.78C-471.8 1812.38 -466.218 1816.18 -461.539 1820.95C-456.86 1825.71 -453.175 1831.35 -450.698 1837.54C-448.221 1843.73 -447.001 1850.34 -447.107 1857L-451.319 2213.77C-451.37 2220.43 -452.746 2227.02 -455.369 2233.14C-457.991 2239.27 -461.808 2244.83 -466.598 2249.48C-471.389 2254.13 -477.058 2257.8 -483.28 2260.26C-489.502 2262.73 -496.152 2263.94 -502.848 2263.84C-509.544 2263.78 -516.164 2262.42 -522.326 2259.81C-528.488 2257.2 -534.069 2253.4 -538.748 2248.64C-543.428 2243.87 -547.112 2238.23 -549.589 2232.04C-552.066 2225.86 -553.287 2219.24 -553.181 2212.58L-549.204 1906.12L-857.306 1902.88C-870.814 1902.72 -883.706 1897.23 -893.145 1887.62C-897.819 1882.86 -901.504 1877.23 -903.991 1871.06C-906.478 1864.88 -907.718 1858.28 -907.639 1851.62C-907.481 1838.19 -901.963 1825.36 -892.299 1815.97C-887.514 1811.33 -881.855 1807.66 -875.646 1805.19C-869.437 1802.71 -862.798 1801.48 -856.11 1801.56Z" fill="url(#paint2_linear_763_342)" fill-opacity="0.07"/>
<path fill-rule="evenodd" clip-rule="evenodd" d="M-65.4677 2371.3L293.203 2375.49C299.899 2375.54 306.519 2376.91 312.681 2379.52C318.842 2382.13 324.424 2385.93 329.103 2390.69C333.782 2395.46 337.467 2401.1 339.944 2407.29C342.421 2413.47 343.642 2420.09 343.536 2426.75L339.324 2783.52C339.273 2790.18 337.896 2796.76 335.273 2802.89C332.651 2809.02 328.834 2814.57 324.044 2819.23C319.253 2823.88 313.584 2827.55 307.362 2830.01C301.141 2832.47 294.49 2833.69 287.794 2833.58C281.098 2833.53 274.478 2832.16 268.316 2829.55C262.155 2826.95 256.573 2823.15 251.894 2818.38C247.215 2813.62 243.53 2807.98 241.053 2801.79C238.576 2795.6 237.355 2788.99 237.461 2782.33L241.438 2475.87L-66.6639 2472.63C-80.1716 2472.47 -93.0632 2466.98 -102.502 2457.37C-107.176 2452.61 -110.862 2446.98 -113.349 2440.8C-115.836 2434.63 -117.076 2428.02 -116.997 2421.37C-116.838 2407.93 -111.32 2395.11 -101.657 2385.72C-96.8717 2381.07 -91.2131 2377.41 -85.0038 2374.93C-78.7945 2372.46 -72.1561 2371.23 -65.4677 2371.3ZM132.429 2531.7L-226.241 2527.51C-232.929 2527.44 -239.568 2528.67 -245.777 2531.14C-251.986 2533.62 -257.645 2537.28 -262.43 2541.93C-272.094 2551.32 -277.612 2564.14 -277.77 2577.58C-277.849 2584.23 -276.609 2590.84 -274.122 2597.01C-271.635 2603.19 -267.95 2608.82 -263.276 2613.58C-253.837 2623.19 -240.945 2628.68 -227.437 2628.84L80.6647 2632.08L76.6879 2938.54C76.5818 2945.2 77.8025 2951.81 80.2797 2958C82.7567 2964.19 86.4412 2969.83 91.1204 2974.59C95.7997 2979.36 101.381 2983.16 107.543 2985.76C113.705 2988.37 120.325 2989.74 127.021 2989.79C133.717 2989.9 140.367 2988.68 146.589 2986.22C152.81 2983.76 158.48 2980.09 163.27 2975.44C168.061 2970.78 171.878 2965.23 174.5 2959.1C177.123 2952.97 178.499 2946.39 178.55 2939.73L182.762 2582.96C182.868 2576.3 181.648 2569.68 179.171 2563.49C176.693 2557.31 173.009 2551.67 168.33 2546.9C163.65 2542.14 158.069 2538.34 151.907 2535.73C145.746 2533.12 139.125 2531.75 132.429 2531.7ZM-28.3449 2687.91L-387.015 2683.72C-393.704 2683.64 -400.342 2684.88 -406.551 2687.35C-412.761 2689.82 -418.419 2693.49 -423.204 2698.14C-432.868 2707.53 -438.386 2720.35 -438.544 2733.79C-438.623 2740.44 -437.383 2747.04 -434.896 2753.22C-432.409 2759.4 -428.724 2765.03 -424.05 2769.78C-414.611 2779.4 -401.719 2784.89 -388.211 2785.04L-80.1094 2788.29L-84.0862 3094.74C-84.1922 3101.41 -82.9716 3108.02 -80.4944 3114.21C-78.0174 3120.4 -74.3329 3126.04 -69.6536 3130.8C-64.9744 3135.57 -59.3929 3139.36 -53.2311 3141.97C-47.0694 3144.58 -40.4495 3145.95 -33.7531 3146C-27.0573 3146.11 -20.4068 3144.89 -14.1852 3142.43C-7.96363 3139.96 -2.29406 3136.3 2.49634 3131.64C7.28686 3126.99 11.1035 3121.44 13.726 3115.31C16.3485 3109.18 17.7251 3102.6 17.7762 3095.93L21.9881 2739.17C22.0943 2732.51 20.8736 2725.89 18.3965 2719.7C15.9193 2713.51 12.2349 2707.88 7.55569 2703.11C2.87632 2698.34 -2.70507 2694.55 -8.86678 2691.94C-15.0285 2689.33 -21.6486 2687.96 -28.3449 2687.91ZM-510.666 3156.54L-869.336 3152.35C-876.025 3152.27 -882.663 3153.5 -888.872 3155.98C-895.082 3158.45 -900.74 3162.12 -905.525 3166.77C-915.189 3176.15 -920.707 3188.98 -920.866 3202.41C-920.944 3209.07 -919.705 3215.67 -917.218 3221.85C-914.731 3228.02 -911.045 3233.65 -906.371 3238.41C-896.932 3248.02 -884.04 3253.51 -870.533 3253.67L-562.431 3256.91L-566.407 3563.37C-566.513 3570.03 -565.293 3576.65 -562.816 3582.83C-560.339 3589.02 -556.654 3594.66 -551.975 3599.43C-547.296 3604.19 -541.714 3607.99 -535.552 3610.6C-529.391 3613.21 -522.771 3614.58 -516.074 3614.63C-509.379 3614.73 -502.728 3613.52 -496.507 3611.05C-490.285 3608.59 -484.615 3604.93 -479.825 3600.27C-475.034 3595.62 -471.218 3590.06 -468.595 3583.94C-465.973 3577.81 -464.596 3571.22 -464.545 3564.56L-460.333 3207.79C-460.227 3201.13 -461.448 3194.52 -463.925 3188.33C-466.402 3182.14 -470.086 3176.5 -474.766 3171.74C-479.445 3166.97 -485.026 3163.17 -491.188 3160.57C-497.35 3157.96 -503.97 3156.59 -510.666 3156.54ZM-1351.66 3620.97L-992.988 3625.16C-986.292 3625.21 -979.672 3626.58 -973.51 3629.19C-967.349 3631.8 -961.767 3635.6 -957.088 3640.36C-952.409 3645.13 -948.724 3650.77 -946.247 3656.95C-943.77 3663.14 -942.549 3669.76 -942.655 3676.42L-946.867 4033.19C-946.919 4039.85 -948.295 4046.43 -950.918 4052.56C-953.54 4058.69 -957.357 4064.24 -962.147 4068.9C-966.938 4073.55 -972.607 4077.22 -978.829 4079.68C-985.05 4082.14 -991.701 4083.36 -998.397 4083.25C-1005.09 4083.2 -1011.71 4081.83 -1017.87 4079.22C-1024.04 4076.61 -1029.62 4072.82 -1034.3 4068.05C-1038.98 4063.29 -1042.66 4057.65 -1045.14 4051.46C-1047.62 4045.27 -1048.84 4038.66 -1048.73 4032L-1044.75 3725.54L-1352.85 3722.3C-1366.36 3722.14 -1379.25 3716.65 -1388.69 3707.04C-1393.37 3702.28 -1397.05 3696.65 -1399.54 3690.47C-1402.03 3684.3 -1403.27 3677.69 -1403.19 3671.04C-1403.03 3657.6 -1397.51 3644.78 -1387.85 3635.39C-1383.06 3630.74 -1377.4 3627.08 -1371.19 3624.6C-1364.99 3622.13 -1358.35 3620.9 -1351.66 3620.97ZM-708.563 2996.14L-349.893 3000.33C-343.196 3000.38 -336.576 3001.75 -330.415 3004.36C-324.253 3006.97 -318.672 3010.76 -313.992 3015.53C-309.313 3020.29 -305.629 3025.93 -303.151 3032.12C-300.674 3038.31 -299.454 3044.92 -299.56 3051.58L-303.772 3408.35C-303.823 3415.01 -305.199 3421.6 -307.822 3427.73C-310.444 3433.86 -314.261 3439.41 -319.052 3444.06C-323.842 3448.72 -329.511 3452.38 -335.733 3454.84C-341.955 3457.31 -348.605 3458.52 -355.301 3458.42C-361.997 3458.37 -368.617 3457 -374.779 3454.39C-380.941 3451.78 -386.522 3447.98 -391.201 3443.22C-395.881 3438.45 -399.565 3432.81 -402.042 3426.63C-404.519 3420.44 -405.74 3413.82 -405.634 3407.16L-401.657 3100.7L-709.759 3097.46C-723.267 3097.3 -736.159 3091.81 -745.598 3082.2C-750.272 3077.44 -753.957 3071.81 -756.444 3065.64C-758.931 3059.46 -760.171 3052.86 -760.092 3046.2C-759.934 3032.77 -754.416 3019.95 -744.752 3010.56C-739.967 3005.91 -734.308 3002.24 -728.099 2999.77C-721.89 2997.29 -715.251 2996.06 -708.563 2996.14ZM-832.214 3468.95L-1190.88 3464.76C-1197.57 3464.69 -1204.21 3465.92 -1210.42 3468.39C-1216.63 3470.87 -1222.29 3474.53 -1227.07 3479.18C-1236.74 3488.57 -1242.25 3501.39 -1242.41 3514.83C-1242.49 3521.48 -1241.25 3528.09 -1238.77 3534.26C-1236.28 3540.44 -1232.59 3546.07 -1227.92 3550.83C-1218.48 3560.44 -1205.59 3565.93 -1192.08 3566.09L-883.979 3569.33L-887.955 3875.79C-888.061 3882.45 -886.841 3889.06 -884.364 3895.25C-881.886 3901.44 -878.202 3907.08 -873.523 3911.84C-868.843 3916.61 -863.262 3920.41 -857.1 3923.01C-850.939 3925.62 -844.319 3926.99 -837.622 3927.04C-830.927 3927.15 -824.276 3925.94 -818.054 3923.47C-811.833 3921.01 -806.163 3917.34 -801.373 3912.69C-796.582 3908.03 -792.766 3902.48 -790.143 3896.35C-787.521 3890.22 -786.144 3883.64 -786.093 3876.98L-781.881 3520.21C-781.775 3513.55 -782.996 3506.93 -785.473 3500.75C-787.95 3494.56 -791.634 3488.92 -796.313 3484.15C-800.993 3479.39 -806.574 3475.59 -812.736 3472.98C-818.898 3470.37 -825.518 3469.01 -832.214 3468.95ZM-189.118 2844.12L-547.789 2839.93C-554.477 2839.85 -561.115 2841.09 -567.325 2843.56C-573.534 2846.03 -579.193 2849.7 -583.978 2854.35C-593.641 2863.74 -599.159 2876.56 -599.318 2890C-599.396 2896.65 -598.157 2903.25 -595.67 2909.43C-593.183 2915.61 -589.497 2921.23 -584.823 2925.99C-575.384 2935.61 -562.493 2941.09 -548.985 2941.25L-240.883 2944.49L-244.86 3250.95C-244.966 3257.61 -243.745 3264.23 -241.268 3270.42C-238.791 3276.61 -235.106 3282.25 -230.427 3287.01C-225.748 3291.78 -220.166 3295.57 -214.005 3298.18C-207.843 3300.79 -201.223 3302.16 -194.527 3302.21C-187.831 3302.31 -181.18 3301.1 -174.959 3298.64C-168.737 3296.17 -163.067 3292.51 -158.277 3287.85C-153.487 3283.2 -149.67 3277.65 -147.047 3271.52C-144.425 3265.39 -143.048 3258.8 -142.997 3252.14L-138.785 2895.38C-138.679 2888.72 -139.9 2882.1 -142.377 2875.91C-144.854 2869.72 -148.539 2864.08 -153.218 2859.32C-157.897 2854.55 -163.479 2850.76 -169.64 2848.15C-175.802 2845.54 -182.422 2844.17 -189.118 2844.12ZM-1030.11 3308.56L-671.44 3312.75C-664.743 3312.8 -658.123 3314.17 -651.962 3316.77C-645.8 3319.38 -640.218 3323.18 -635.539 3327.94C-630.86 3332.71 -627.175 3338.35 -624.698 3344.54C-622.221 3350.73 -621 3357.34 -621.107 3364L-625.319 3720.77C-625.37 3727.43 -626.746 3734.02 -629.369 3740.14C-631.991 3746.27 -635.808 3751.82 -640.598 3756.48C-645.389 3761.13 -651.058 3764.8 -657.28 3767.26C-663.502 3769.73 -670.152 3770.94 -676.848 3770.84C-683.544 3770.78 -690.164 3769.42 -696.326 3766.81C-702.488 3764.2 -708.069 3760.4 -712.748 3755.64C-717.428 3750.87 -721.112 3745.23 -723.589 3739.04C-726.066 3732.85 -727.287 3726.24 -727.181 3719.58L-723.204 3413.12L-1031.31 3409.88C-1044.81 3409.72 -1057.71 3404.23 -1067.14 3394.62C-1071.82 3389.86 -1075.5 3384.23 -1077.99 3378.05C-1080.48 3371.88 -1081.72 3365.28 -1081.64 3358.62C-1081.48 3345.19 -1075.96 3332.36 -1066.3 3322.97C-1061.51 3318.32 -1055.86 3314.66 -1049.65 3312.18C-1043.44 3309.71 -1036.8 3308.48 -1030.11 3308.56Z" fill="url(#paint3_linear_763_342)" fill-opacity="0.07"/>
</g>
<defs>
<linearGradient id="paint0_linear_763_342" x1="2675.98" y1="175.737" x2="1052.28" y2="1132.58" gradientUnits="userSpaceOnUse">
<stop stop-color="white"/>
<stop offset="0.694" stop-color="#A215FF" stop-opacity="0"/>
</linearGradient>
<linearGradient id="paint1_linear_763_342" x1="2501.98" y1="1682.74" x2="878.277" y2="2639.58" gradientUnits="userSpaceOnUse">
<stop stop-color="white"/>
<stop offset="0.694" stop-color="#A215FF" stop-opacity="0"/>
</linearGradient>
<linearGradient id="paint2_linear_763_342" x1="695.982" y1="1187.74" x2="-927.723" y2="2144.58" gradientUnits="userSpaceOnUse">
<stop stop-color="white"/>
<stop offset="0.694" stop-color="#A215FF" stop-opacity="0"/>
</linearGradient>
<linearGradient id="paint3_linear_763_342" x1="521.983" y1="2694.74" x2="-1101.72" y2="3651.58" gradientUnits="userSpaceOnUse">
<stop stop-color="white"/>
<stop offset="0.694" stop-color="#A215FF" stop-opacity="0"/>
</linearGradient>
</defs>
</svg>
