<svg width="410" height="544" viewBox="0 0 410 544" fill="none" xmlns="http://www.w3.org/2000/svg">
<path fill-rule="evenodd" clip-rule="evenodd" d="M166.876 95.3008C159.774 86.918 154.967 76.6448 155.77 65.1334C158.085 31.9658 204.002 39.2623 212.934 56.0024C221.866 72.7426 220.805 115.205 209.261 118.197C204.657 119.39 194.85 116.468 184.869 110.418L191.134 154.985H154.141L166.876 95.3008Z" fill="#B28B67"/>
<path fill-rule="evenodd" clip-rule="evenodd" d="M198.324 37.7699C193.269 36.22 185.931 35.6944 182.844 36.05C184.6 31.8198 185.297 27.1068 184.729 22.5179C184.177 18.059 182.195 14.2623 180.363 10.2839C179.518 8.45005 178.561 6.62624 177.133 5.22359C175.68 3.79457 173.839 2.85131 171.909 2.40129C169.934 1.94065 167.869 1.97901 165.891 2.39704C165.016 2.58195 164.23 2.98424 163.372 3.20787C162.493 3.43701 162.067 2.88392 161.429 2.32808C159.892 0.988765 157.638 0.327605 155.693 0.090977C153.511 -0.174387 151.247 0.156568 149.166 0.877822C147.141 1.57996 145.195 2.72012 143.73 4.38115C143.078 5.12052 142.486 5.96208 142.102 6.89123C141.944 7.27253 141.918 7.49842 141.54 7.6381C141.19 7.76741 140.78 7.77115 140.419 7.89421C136.927 9.0836 133.94 11.797 132.315 15.2808C131.366 17.3132 130.917 20.8917 131.04 24.9025C131.163 28.9134 134.765 39.3788 138.133 43.1961C141.14 46.6033 145.56 48.8518 149.826 49.836C146.994 53.09 145.11 57.1561 143.716 61.2915C142.202 65.7836 141.265 70.451 140.919 75.2067C140.591 79.7252 140.56 84.5034 141.614 88.9254C142.599 93.0607 144.707 96.4531 148.225 98.6052C149.837 99.5911 151.571 100.332 153.315 101.009C155.033 101.676 156.757 102.324 158.558 102.698C161.965 103.407 165.891 103.285 168.516 100.558C169.462 99.5748 170.503 98.3395 171.193 97.1385C171.441 96.7066 171.59 96.4241 171.289 96.0019C170.928 95.4963 170.344 95.1089 169.88 94.7133C167.234 92.4581 165.596 89.4474 165.183 85.8695C164.764 82.2392 165.734 77.5535 169.244 75.9692C173.577 74.0135 178.349 76.2583 182.2 78.3509C183.837 72.5424 187.198 67.3124 192.467 64.648C198.296 61.7004 204.985 61.3555 210.975 58.8264C212.536 58.1674 214.126 57.4192 215.275 56.0764C215.756 55.5152 216.319 54.7872 216.511 54.045C216.763 53.07 216.137 52.2525 215.654 51.4924C213.093 47.4621 203.379 39.3197 198.324 37.7699Z" fill="#191847"/>
<path fill-rule="evenodd" clip-rule="evenodd" d="M337.382 311.671C348.449 296.579 376.112 306.57 376.096 319.064C376.052 351.867 346.28 507.598 344.726 517.43C343.171 527.262 326.52 530.478 325.55 518.193C324.007 498.645 321.141 430.881 324.009 399.355C324.847 390.147 325.73 381.246 326.62 372.907C310.973 401.171 287.18 441.12 255.241 492.753L237.49 484.598C251.43 438.419 262.86 405.817 271.781 386.794C287.055 354.221 301.378 326.326 307.406 316.501C315.368 303.522 328.283 305.245 337.382 311.671Z" fill="#B28B67"/>
<path fill-rule="evenodd" clip-rule="evenodd" d="M238.759 458.952L299.686 313.827C314.282 290.219 355.204 318.631 350.227 332.324C338.926 363.41 281.455 464.05 278.088 473.311L238.759 458.952Z" fill="#1F28CF"/>
<path fill-rule="evenodd" clip-rule="evenodd" d="M377.638 330.395C377.638 371.529 359.706 468.222 359.694 477.28L316.255 475.807C323.848 391.739 327.05 349.42 325.861 348.85C323.186 347.568 216.198 363.739 184.111 364.96C137.84 366.721 118.699 338.178 117.146 284.014H206.773C283.412 293.212 333.783 299.61 357.885 303.207C373.362 305.517 377.638 319.063 377.638 330.395Z" fill="#2B44FF"/>
<path fill-rule="evenodd" clip-rule="evenodd" d="M235.087 480.049C232.301 484.121 230.631 487.272 230.078 489.501C229.405 492.213 228.874 496.283 228.482 501.711C231.611 502.495 259.729 509.544 312.836 522.858C316.835 516.121 316.545 511.87 311.966 510.105C307.387 508.34 303.594 506.832 300.586 505.58L265.737 478.176C265.067 477.649 264.098 477.768 263.574 478.443C263.565 478.454 263.556 478.466 263.547 478.478L259.503 483.993C254.622 484.948 250.815 485.083 248.082 484.397C245.861 483.841 243.017 482.17 239.551 479.385C238.221 478.316 236.281 478.534 235.219 479.872C235.173 479.929 235.129 479.988 235.087 480.049Z" fill="#E4E4E4"/>
<path fill-rule="evenodd" clip-rule="evenodd" d="M323.187 495.028C321.463 499.657 320.6 503.12 320.6 505.418C320.6 508.213 321.063 512.291 321.99 517.653C325.214 517.653 354.193 517.653 408.926 517.653C411.185 510.143 409.881 506.089 405.013 505.49C400.146 504.891 396.103 504.351 392.883 503.868L352.476 485.755C351.698 485.407 350.787 485.758 350.441 486.54C350.435 486.553 350.429 486.567 350.423 486.58L347.826 492.915C343.32 495.029 339.658 496.086 336.841 496.086C334.552 496.086 331.392 495.157 327.358 493.298C325.811 492.584 323.981 493.268 323.272 494.824C323.241 494.891 323.213 494.959 323.187 495.028Z" fill="#E4E4E4"/>
<path d="M398.447 517.653H327.543C324.564 517.653 322.149 520.081 322.149 523.077C322.149 526.073 324.564 528.502 327.543 528.502H398.447C401.426 528.502 403.841 526.073 403.841 523.077C403.841 520.081 401.426 517.653 398.447 517.653Z" fill="#2F3676"/>
<path fill-rule="evenodd" clip-rule="evenodd" d="M112.52 292.923H277.447C285.96 292.923 292.861 299.862 292.861 308.422V384.365H103.272C99.8666 384.365 97.1063 381.589 97.1063 378.165V308.422C97.1063 299.862 104.007 292.923 112.52 292.923Z" fill="#2F3676"/>
<path fill-rule="evenodd" clip-rule="evenodd" d="M277.449 292.923H280.831C288.38 292.923 294.818 298.421 296.041 305.911L329.856 513.002H313.386" fill="#2F3676"/>
<path d="M322.146 544C337.469 544 349.891 531.51 349.891 516.103C349.891 500.696 337.469 488.206 322.146 488.206C306.823 488.206 294.401 500.696 294.401 516.103C294.401 531.51 306.823 544 322.146 544Z" fill="#191847"/>
<path fill-rule="evenodd" clip-rule="evenodd" d="M117.144 540.899C52.4473 540.899 0 488.164 0 423.111C0 358.058 52.4473 305.322 117.144 305.322C181.841 305.322 234.289 358.058 234.289 423.111C234.289 488.164 181.841 540.899 117.144 540.899ZM117.144 519.201C169.924 519.201 212.709 476.18 212.709 423.111C212.709 370.041 169.924 327.02 117.144 327.02C64.3652 327.02 21.5792 370.041 21.5792 423.111C21.5792 476.18 64.3652 519.201 117.144 519.201Z" fill="#6B12BC"/>
<path d="M123.311 320.821H110.98V525.401H123.311V320.821Z" fill="#6B12BC"/>
<path d="M191.257 352.973L186.897 348.589C185.694 347.379 183.742 347.379 182.538 348.589L43.0286 488.866C41.8247 490.076 41.8247 492.039 43.0286 493.25L47.3882 497.633C48.5921 498.844 50.544 498.844 51.7479 497.633L191.257 357.357C192.461 356.146 192.461 354.183 191.257 352.973Z" fill="#6B12BC"/>
<path d="M218.876 426.21V420.011C218.876 418.299 217.496 416.911 215.794 416.911H18.4978C16.7953 416.911 15.4151 418.299 15.4151 420.011V426.21C15.4151 427.922 16.7953 429.31 18.4978 429.31H215.794C217.496 429.31 218.876 427.922 218.876 426.21Z" fill="#6B12BC"/>
<path d="M186.897 497.633L191.256 493.249C192.46 492.038 192.46 490.076 191.256 488.865L51.7472 348.589C50.5433 347.378 48.5914 347.378 47.3875 348.589L43.0279 352.972C41.824 354.183 41.824 356.145 43.0279 357.356L182.537 497.633C183.741 498.843 185.693 498.843 186.897 497.633Z" fill="#6B12BC"/>
<path fill-rule="evenodd" clip-rule="evenodd" d="M273.527 124.517L331.951 106.882C342.85 98.3512 353.13 92.1137 362.792 88.1697C365.602 87.6379 370.253 87.9467 364.44 94.5774C358.627 101.208 352.809 108.445 354.469 111.226C356.129 114.006 362.176 111.91 363.926 116.314C365.093 119.25 355.074 121.353 333.869 122.623L288.443 149.503L273.527 124.517ZM268.364 228.09L317.531 264.393C330.867 268.011 342.008 272.512 350.955 277.897C353.068 279.834 355.622 283.755 346.857 283.077C338.092 282.4 328.843 282.083 327.633 285.089C326.424 288.095 331.728 291.69 329.283 295.746C327.654 298.45 319.954 291.67 306.184 275.406L257.495 255.105L268.364 228.09Z" fill="#B28B67"/>
<path fill-rule="evenodd" clip-rule="evenodd" d="M192.002 130.323C218.776 180.522 257.494 219.003 313.623 259.006L292.37 283.101C229.699 259.683 196.623 245.553 180.38 198.126C176.303 186.222 173.454 148.276 171.01 128.311L192.002 130.323Z" fill="#E87613"/>
<path fill-rule="evenodd" clip-rule="evenodd" d="M117.147 297.572H235.832C208.948 215.129 195.215 158.544 194.632 127.819C194.602 126.253 191.725 123.493 190.452 123.854C181.144 126.498 171.183 125.509 160.57 120.889C132.433 166.39 122.703 222.412 117.147 297.572Z" fill="#F2F2F2"/>
<path fill-rule="evenodd" clip-rule="evenodd" d="M170.7 120.963C204.72 121.243 259.917 127.489 323.573 106.94L329.858 138.516C281.747 169.629 233.03 193.731 190.342 190.308C208.879 270.259 208.025 335.708 167.1 335.708C147.557 335.708 126.463 335.708 103.817 335.708C93.7665 267.79 120.182 173.621 144.671 126.122C145.606 124.309 147.597 120.889 152.287 120.889C156.373 120.889 162.503 120.889 170.675 120.889C170.683 120.914 170.692 120.938 170.7 120.963Z" fill="#FF9B21"/>
</svg>
