<svg width="28" height="28" viewBox="0 0 28 28" fill="none" xmlns="http://www.w3.org/2000/svg">
<path fill-rule="evenodd" clip-rule="evenodd" d="M2.8 14C2.8002 11.8446 3.42232 9.7351 4.5917 7.92454C5.76109 6.11397 7.42806 4.67928 9.39261 3.79262C11.3572 2.90596 13.5358 2.60499 15.6672 2.92582C17.7985 3.24666 19.792 4.17567 21.4085 5.60139C23.025 7.02711 24.1957 8.88896 24.7802 10.9636C25.3648 13.0381 25.3383 15.2373 24.704 17.2972C24.0696 19.3572 22.8544 21.1903 21.2041 22.5767C19.5538 23.963 17.5385 24.8438 15.4 25.1132V16.8H18.2C18.5713 16.8 18.9274 16.6525 19.1899 16.3899C19.4525 16.1274 19.6 15.7713 19.6 15.4C19.6 15.0287 19.4525 14.6726 19.1899 14.4101C18.9274 14.1475 18.5713 14 18.2 14H15.4V11.2C15.4 10.8287 15.5475 10.4726 15.8101 10.2101C16.0726 9.9475 16.4287 9.8 16.8 9.8H17.5C17.8713 9.8 18.2274 9.6525 18.4899 9.38995C18.7525 9.1274 18.9 8.7713 18.9 8.4C18.9 8.0287 18.7525 7.6726 18.4899 7.41005C18.2274 7.1475 17.8713 7 17.5 7H16.8C15.6861 7 14.6178 7.4425 13.8302 8.23015C13.0425 9.0178 12.6 10.0861 12.6 11.2V14H9.8C9.4287 14 9.0726 14.1475 8.81005 14.4101C8.5475 14.6726 8.4 15.0287 8.4 15.4C8.4 15.7713 8.5475 16.1274 8.81005 16.3899C9.0726 16.6525 9.4287 16.8 9.8 16.8H12.6V25.1132C9.89338 24.7719 7.40435 23.4546 5.6 21.4084C3.79566 19.3623 2.80005 16.7281 2.8 14ZM14 28C21.7322 28 28 21.7322 28 14C28 6.2678 21.7322 0 14 0C6.2678 0 0 6.2678 0 14C0 21.7322 6.2678 28 14 28Z" fill="#353C65"/>
</svg>
