<svg width="170" height="72" viewBox="0 0 170 72" fill="none" xmlns="http://www.w3.org/2000/svg">
<g clip-path="url(#clip0_163_89)">
<path d="M61.6801 6.26253L19.9888 0.128386C13.3833 -0.843488 7.2407 3.72343 6.26883 10.3289L0.134691 52.0202C-0.837183 58.6257 3.72973 64.7683 10.3352 65.7402L52.0265 71.8743C58.632 72.8462 64.7746 68.2793 65.7465 61.6738L71.8806 19.9825C72.8525 13.377 68.2856 7.2344 61.6801 6.26253Z" fill="#A215FF"/>
<path d="M54.4004 6.16553H17.5995C10.923 6.16553 5.51056 11.578 5.51056 18.2545V55.0554C5.51056 61.732 10.923 67.1444 17.5995 67.1444H54.4004C61.077 67.1444 66.4894 61.732 66.4894 55.0554V18.2545C66.4894 11.578 61.077 6.16553 54.4004 6.16553Z" fill="black"/>
<path d="M36.9722 55.0553C47.0593 55.0553 55.2366 46.878 55.2366 36.7908C55.2366 26.7036 47.0593 18.5264 36.9722 18.5264C26.885 18.5264 18.7077 26.7036 18.7077 36.7908C18.7077 46.878 26.885 55.0553 36.9722 55.0553Z" fill="white"/>
<path d="M36.8211 54.9649C46.9082 54.9649 55.0855 46.7877 55.0855 36.7005C55.0855 26.6133 46.9082 18.436 36.8211 18.436C26.7339 18.436 18.5566 26.6133 18.5566 36.7005C18.5566 46.7877 26.7339 54.9649 36.8211 54.9649Z" fill="white"/>
<path d="M36.5994 54.9952C46.6866 54.9952 54.8639 46.8179 54.8639 36.7308C54.8639 26.6436 46.6866 18.4663 36.5994 18.4663C26.5122 18.4663 18.335 26.6436 18.335 36.7308C18.335 46.8179 26.5122 54.9952 36.5994 54.9952Z" fill="white"/>
<path d="M50.1995 46.8755C50.4561 46.617 50.6 46.2675 50.6 45.9033C50.6 45.5391 50.4561 45.1897 50.1995 44.9312L37.9695 32.7011C37.8389 32.5659 37.6824 32.4583 37.5093 32.3848C37.3362 32.3113 37.1501 32.2734 36.9621 32.2734C36.774 32.2734 36.5879 32.3113 36.4149 32.3848C36.2418 32.4583 36.0853 32.5659 35.9547 32.7011L23.7448 44.9312C23.4883 45.1897 23.3443 45.5391 23.3443 45.9033C23.3443 46.2675 23.4883 46.617 23.7448 46.8755C24.0033 47.132 24.3527 47.276 24.7169 47.276C25.0811 47.276 25.4306 47.132 25.6891 46.8755L35.995 36.5595C36.2535 36.303 36.6029 36.159 36.9671 36.159C37.3313 36.159 37.6808 36.303 37.9393 36.5595L48.2552 46.8755C48.3879 47.0063 48.5453 47.1093 48.7183 47.1785C48.8913 47.2477 49.0763 47.2817 49.2626 47.2784C49.6132 47.261 49.9458 47.118 50.1995 46.8755Z" fill="black"/>
<path d="M50.1995 39.8034C50.4561 39.5448 50.6 39.1954 50.6 38.8312C50.6 38.467 50.4561 38.1176 50.1995 37.859L37.9695 25.629C37.8375 25.4962 37.6805 25.3908 37.5076 25.3189C37.3347 25.247 37.1493 25.21 36.9621 25.21C36.7748 25.21 36.5894 25.247 36.4165 25.3189C36.2436 25.3908 36.0867 25.4962 35.9547 25.629L23.7448 37.859C23.4883 38.1176 23.3443 38.467 23.3443 38.8312C23.3443 39.1954 23.4883 39.5448 23.7448 39.8034C24.0033 40.0599 24.3527 40.2038 24.7169 40.2038C25.0811 40.2038 25.4306 40.0599 25.6891 39.8034L35.995 29.4975C36.1216 29.368 36.2728 29.2652 36.4398 29.1949C36.6067 29.1247 36.786 29.0886 36.9671 29.0886C37.1482 29.0886 37.3275 29.1247 37.4944 29.1949C37.6614 29.2652 37.8126 29.368 37.9393 29.4975L48.2552 39.8034C48.3879 39.9342 48.5453 40.0372 48.7183 40.1064C48.8913 40.1756 49.0763 40.2095 49.2626 40.2063C49.6132 40.1889 49.9458 40.0459 50.1995 39.8034Z" fill="black"/>
</g>
<path d="M90.6 33.28C89.088 33.28 87.6693 33 86.344 32.44C85.0373 31.8613 83.8893 31.068 82.9 30.06C81.9293 29.0333 81.164 27.8387 80.604 26.476C80.0627 25.1133 79.792 23.6387 79.792 22.052C79.792 20.484 80.0627 19.028 80.604 17.684C81.164 16.3213 81.9293 15.136 82.9 14.128C83.8893 13.1013 85.0373 12.2987 86.344 11.72C87.6507 11.1413 89.0693 10.852 90.6 10.852C92.0373 10.852 93.2693 11.0387 94.296 11.412C95.3413 11.7853 96.3867 12.4013 97.432 13.26C97.5813 13.372 97.6933 13.4933 97.768 13.624C97.8613 13.736 97.9173 13.8573 97.936 13.988C97.9733 14.1 97.992 14.24 97.992 14.408C97.992 14.7627 97.8613 15.0613 97.6 15.304C97.3573 15.5467 97.0493 15.6773 96.676 15.696C96.3213 15.7147 95.9853 15.5933 95.668 15.332C94.9773 14.7347 94.2587 14.2773 93.512 13.96C92.784 13.6427 91.8133 13.484 90.6 13.484C89.4987 13.484 88.4627 13.708 87.492 14.156C86.5213 14.604 85.6627 15.22 84.916 16.004C84.188 16.788 83.6187 17.7027 83.208 18.748C82.7973 19.7747 82.592 20.876 82.592 22.052C82.592 23.2467 82.7973 24.3667 83.208 25.412C83.6187 26.4387 84.188 27.344 84.916 28.128C85.6627 28.912 86.5213 29.528 87.492 29.976C88.4627 30.4053 89.4987 30.62 90.6 30.62C91.552 30.62 92.448 30.4613 93.288 30.144C94.1467 29.808 94.968 29.3507 95.752 28.772C96.088 28.5293 96.4147 28.4267 96.732 28.464C97.068 28.4827 97.348 28.6133 97.572 28.856C97.796 29.08 97.908 29.3973 97.908 29.808C97.908 29.9947 97.8707 30.1813 97.796 30.368C97.74 30.536 97.628 30.6947 97.46 30.844C96.4707 31.6653 95.3973 32.2813 94.24 32.692C93.0827 33.084 91.8693 33.28 90.6 33.28ZM97.908 29.808L95.108 29.248V24.236H91.244C90.8333 24.236 90.488 24.1147 90.208 23.872C89.928 23.6293 89.788 23.3213 89.788 22.948C89.788 22.5747 89.928 22.2667 90.208 22.024C90.488 21.7813 90.8333 21.66 91.244 21.66H96.48C96.9093 21.66 97.2547 21.8 97.516 22.08C97.7773 22.3413 97.908 22.6867 97.908 23.116V29.808ZM108.361 33.112C106.811 33.112 105.43 32.7853 104.217 32.132C103.022 31.46 102.079 30.5453 101.389 29.388C100.717 28.212 100.381 26.868 100.381 25.356C100.381 23.8253 100.698 22.4813 101.333 21.324C101.986 20.148 102.882 19.2333 104.021 18.58C105.159 17.908 106.466 17.572 107.941 17.572C109.397 17.572 110.647 17.8987 111.693 18.552C112.738 19.1867 113.531 20.0733 114.073 21.212C114.633 22.332 114.913 23.6293 114.913 25.104C114.913 25.4587 114.791 25.7573 114.549 26C114.306 26.224 113.998 26.336 113.625 26.336H102.341V24.096H113.541L112.393 24.88C112.374 23.9467 112.187 23.116 111.833 22.388C111.478 21.6413 110.974 21.0533 110.321 20.624C109.667 20.1947 108.874 19.98 107.941 19.98C106.877 19.98 105.962 20.2133 105.197 20.68C104.45 21.1467 103.881 21.7907 103.489 22.612C103.097 23.4147 102.901 24.3293 102.901 25.356C102.901 26.3827 103.134 27.2973 103.601 28.1C104.067 28.9027 104.711 29.5373 105.533 30.004C106.354 30.4707 107.297 30.704 108.361 30.704C108.939 30.704 109.527 30.6013 110.125 30.396C110.741 30.172 111.235 29.92 111.609 29.64C111.889 29.4347 112.187 29.332 112.505 29.332C112.841 29.3133 113.13 29.4067 113.373 29.612C113.69 29.892 113.858 30.2 113.877 30.536C113.895 30.872 113.746 31.1613 113.429 31.404C112.794 31.908 112.001 32.3187 111.049 32.636C110.115 32.9533 109.219 33.112 108.361 33.112ZM124.127 33C123.194 33 122.354 32.7667 121.607 32.3C120.86 31.8147 120.272 31.1613 119.843 30.34C119.414 29.5187 119.199 28.5947 119.199 27.568V14.212C119.199 13.8013 119.33 13.4653 119.591 13.204C119.852 12.9427 120.188 12.812 120.599 12.812C121.01 12.812 121.346 12.9427 121.607 13.204C121.868 13.4653 121.999 13.8013 121.999 14.212V27.568C121.999 28.3147 122.204 28.94 122.615 29.444C123.026 29.948 123.53 30.2 124.127 30.2H125.079C125.415 30.2 125.695 30.3307 125.919 30.592C126.162 30.8533 126.283 31.1893 126.283 31.6C126.283 32.0107 126.124 32.3467 125.807 32.608C125.508 32.8693 125.116 33 124.631 33H124.127ZM117.911 20.652C117.519 20.652 117.202 20.54 116.959 20.316C116.716 20.092 116.595 19.812 116.595 19.476C116.595 19.1027 116.716 18.804 116.959 18.58C117.202 18.356 117.519 18.244 117.911 18.244H124.379C124.771 18.244 125.088 18.356 125.331 18.58C125.574 18.804 125.695 19.1027 125.695 19.476C125.695 19.812 125.574 20.092 125.331 20.316C125.088 20.54 124.771 20.652 124.379 20.652H117.911ZM82.256 58C81.8453 58 81.5 57.86 81.22 57.58C80.94 57.3 80.8 56.9547 80.8 56.544V37.588C80.8 37.1587 80.94 36.8133 81.22 36.552C81.5 36.272 81.8453 36.132 82.256 36.132H88.948C90.2173 36.132 91.328 36.384 92.28 36.888C93.2507 37.3733 94.0067 38.0547 94.548 38.932C95.108 39.8093 95.388 40.8173 95.388 41.956C95.388 42.8707 95.136 43.7013 94.632 44.448C94.1467 45.176 93.4747 45.7547 92.616 46.184C93.848 46.4827 94.8373 47.0707 95.584 47.948C96.3307 48.8253 96.704 49.9733 96.704 51.392C96.704 52.68 96.396 53.8187 95.78 54.808C95.1827 55.7973 94.3427 56.5813 93.26 57.16C92.1773 57.72 90.936 58 89.536 58H82.256ZM83.712 55.312H89.536C90.3947 55.312 91.1507 55.1627 91.804 54.864C92.4573 54.5653 92.9707 54.1267 93.344 53.548C93.7173 52.9693 93.904 52.2507 93.904 51.392C93.904 50.5893 93.7173 49.9267 93.344 49.404C92.9707 48.8813 92.4573 48.4893 91.804 48.228C91.1507 47.948 90.3947 47.808 89.536 47.808H83.712V55.312ZM83.712 45.12H88.948C90.012 45.12 90.88 44.8587 91.552 44.336C92.2427 43.8133 92.588 43.02 92.588 41.956C92.588 40.892 92.2427 40.108 91.552 39.604C90.88 39.0813 90.012 38.82 88.948 38.82H83.712V45.12ZM107.95 58.112C106.401 58.112 105.02 57.7853 103.806 57.132C102.612 56.46 101.669 55.5453 100.978 54.388C100.306 53.212 99.9704 51.868 99.9704 50.356C99.9704 48.8253 100.288 47.4813 100.922 46.324C101.576 45.148 102.472 44.2333 103.61 43.58C104.749 42.908 106.056 42.572 107.53 42.572C108.986 42.572 110.237 42.8987 111.282 43.552C112.328 44.1867 113.121 45.0733 113.662 46.212C114.222 47.332 114.502 48.6293 114.502 50.104C114.502 50.4587 114.381 50.7573 114.138 51C113.896 51.224 113.588 51.336 113.214 51.336H101.93V49.096H113.13L111.982 49.88C111.964 48.9467 111.777 48.116 111.422 47.388C111.068 46.6413 110.564 46.0533 109.91 45.624C109.257 45.1947 108.464 44.98 107.53 44.98C106.466 44.98 105.552 45.2133 104.786 45.68C104.04 46.1467 103.47 46.7907 103.078 47.612C102.686 48.4147 102.49 49.3293 102.49 50.356C102.49 51.3827 102.724 52.2973 103.19 53.1C103.657 53.9027 104.301 54.5373 105.122 55.004C105.944 55.4707 106.886 55.704 107.95 55.704C108.529 55.704 109.117 55.6013 109.714 55.396C110.33 55.172 110.825 54.92 111.198 54.64C111.478 54.4347 111.777 54.332 112.094 54.332C112.43 54.3133 112.72 54.4067 112.962 54.612C113.28 54.892 113.448 55.2 113.466 55.536C113.485 55.872 113.336 56.1613 113.018 56.404C112.384 56.908 111.59 57.3187 110.638 57.636C109.705 57.9533 108.809 58.112 107.95 58.112ZM123.717 58C122.784 58 121.944 57.7667 121.197 57.3C120.45 56.8147 119.862 56.1613 119.433 55.34C119.004 54.5187 118.789 53.5947 118.789 52.568V39.212C118.789 38.8013 118.92 38.4653 119.181 38.204C119.442 37.9427 119.778 37.812 120.189 37.812C120.6 37.812 120.936 37.9427 121.197 38.204C121.458 38.4653 121.589 38.8013 121.589 39.212V52.568C121.589 53.3147 121.794 53.94 122.205 54.444C122.616 54.948 123.12 55.2 123.717 55.2H124.669C125.005 55.2 125.285 55.3307 125.509 55.592C125.752 55.8533 125.873 56.1893 125.873 56.6C125.873 57.0107 125.714 57.3467 125.397 57.608C125.098 57.8693 124.706 58 124.221 58H123.717ZM117.501 45.652C117.109 45.652 116.792 45.54 116.549 45.316C116.306 45.092 116.185 44.812 116.185 44.476C116.185 44.1027 116.306 43.804 116.549 43.58C116.792 43.356 117.109 43.244 117.501 43.244H123.969C124.361 43.244 124.678 43.356 124.921 43.58C125.164 43.804 125.285 44.1027 125.285 44.476C125.285 44.812 125.164 45.092 124.921 45.316C124.678 45.54 124.361 45.652 123.969 45.652H117.501ZM134.955 58C134.022 58 133.182 57.7667 132.435 57.3C131.689 56.8147 131.101 56.1613 130.671 55.34C130.242 54.5187 130.027 53.5947 130.027 52.568V39.212C130.027 38.8013 130.158 38.4653 130.419 38.204C130.681 37.9427 131.017 37.812 131.427 37.812C131.838 37.812 132.174 37.9427 132.435 38.204C132.697 38.4653 132.827 38.8013 132.827 39.212V52.568C132.827 53.3147 133.033 53.94 133.443 54.444C133.854 54.948 134.358 55.2 134.955 55.2H135.907C136.243 55.2 136.523 55.3307 136.747 55.592C136.99 55.8533 137.111 56.1893 137.111 56.6C137.111 57.0107 136.953 57.3467 136.635 57.608C136.337 57.8693 135.945 58 135.459 58H134.955ZM128.739 45.652C128.347 45.652 128.03 45.54 127.787 45.316C127.545 45.092 127.423 44.812 127.423 44.476C127.423 44.1027 127.545 43.804 127.787 43.58C128.03 43.356 128.347 43.244 128.739 43.244H135.207C135.599 43.244 135.917 43.356 136.159 43.58C136.402 43.804 136.523 44.1027 136.523 44.476C136.523 44.812 136.402 45.092 136.159 45.316C135.917 45.54 135.599 45.652 135.207 45.652H128.739ZM147.818 58.112C146.268 58.112 144.887 57.7853 143.674 57.132C142.479 56.46 141.536 55.5453 140.846 54.388C140.174 53.212 139.838 51.868 139.838 50.356C139.838 48.8253 140.155 47.4813 140.79 46.324C141.443 45.148 142.339 44.2333 143.478 43.58C144.616 42.908 145.923 42.572 147.398 42.572C148.854 42.572 150.104 42.8987 151.15 43.552C152.195 44.1867 152.988 45.0733 153.53 46.212C154.09 47.332 154.37 48.6293 154.37 50.104C154.37 50.4587 154.248 50.7573 154.006 51C153.763 51.224 153.455 51.336 153.082 51.336H141.798V49.096H152.998L151.85 49.88C151.831 48.9467 151.644 48.116 151.29 47.388C150.935 46.6413 150.431 46.0533 149.778 45.624C149.124 45.1947 148.331 44.98 147.398 44.98C146.334 44.98 145.419 45.2133 144.654 45.68C143.907 46.1467 143.338 46.7907 142.946 47.612C142.554 48.4147 142.358 49.3293 142.358 50.356C142.358 51.3827 142.591 52.2973 143.058 53.1C143.524 53.9027 144.168 54.5373 144.99 55.004C145.811 55.4707 146.754 55.704 147.818 55.704C148.396 55.704 148.984 55.6013 149.582 55.396C150.198 55.172 150.692 54.92 151.066 54.64C151.346 54.4347 151.644 54.332 151.962 54.332C152.298 54.3133 152.587 54.4067 152.83 54.612C153.147 54.892 153.315 55.2 153.334 55.536C153.352 55.872 153.203 56.1613 152.886 56.404C152.251 56.908 151.458 57.3187 150.506 57.636C149.572 57.9533 148.676 58.112 147.818 58.112ZM159.384 48.424C159.384 47.304 159.655 46.3053 160.196 45.428C160.756 44.532 161.503 43.8227 162.436 43.3C163.37 42.7773 164.396 42.516 165.516 42.516C166.636 42.516 167.467 42.7027 168.008 43.076C168.568 43.4307 168.783 43.86 168.652 44.364C168.596 44.6253 168.484 44.8307 168.316 44.98C168.167 45.1107 167.99 45.1947 167.784 45.232C167.579 45.2693 167.355 45.26 167.112 45.204C165.918 44.9613 164.844 44.9427 163.892 45.148C162.94 45.3533 162.184 45.736 161.624 46.296C161.083 46.856 160.812 47.5653 160.812 48.424H159.384ZM159.412 58C158.964 58 158.619 57.888 158.376 57.664C158.134 57.4213 158.012 57.0667 158.012 56.6V44.084C158.012 43.636 158.134 43.2907 158.376 43.048C158.619 42.8053 158.964 42.684 159.412 42.684C159.879 42.684 160.224 42.8053 160.448 43.048C160.691 43.272 160.812 43.6173 160.812 44.084V56.6C160.812 57.048 160.691 57.3933 160.448 57.636C160.224 57.8787 159.879 58 159.412 58Z" fill="black"/>
<defs>
<clipPath id="clip0_163_89">
<rect width="72" height="72" fill="white"/>
</clipPath>
</defs>
</svg>
