<svg width="45" height="45" viewBox="0 0 45 45" fill="none" xmlns="http://www.w3.org/2000/svg">
<path d="M37.8492 4.71962L12.9226 1.05212C8.97326 0.471049 5.30068 3.20154 4.71961 7.15083L1.05211 32.0774C0.471038 36.0267 3.20152 39.6993 7.15082 40.2804L32.0774 43.9479C36.0267 44.5289 39.6993 41.7985 40.2804 37.8492L43.9479 12.9226C44.5289 8.97327 41.7985 5.30069 37.8492 4.71962Z" fill="#A215FF"/>
<path d="M33.5912 4.27002H11.5027C7.49533 4.27002 4.2467 7.51865 4.2467 11.526V33.6145C4.2467 37.6219 7.49533 40.8706 11.5027 40.8706H33.5912C37.5986 40.8706 40.8472 37.6219 40.8472 33.6145V11.526C40.8472 7.51865 37.5986 4.27002 33.5912 4.27002Z" fill="black"/>
<path d="M22.547 33.5504C28.6112 33.5504 33.5272 28.6344 33.5272 22.5703C33.5272 16.5061 28.6112 11.5901 22.547 11.5901C16.4828 11.5901 11.5668 16.5061 11.5668 22.5703C11.5668 28.6344 16.4828 33.5504 22.547 33.5504Z" fill="white"/>
<path d="M30.3921 29.187C30.5442 29.0294 30.6296 28.8163 30.6296 28.5942C30.6296 28.3721 30.5442 28.159 30.3921 28.0014L23.1385 20.5435C23.061 20.461 22.9682 20.3954 22.8656 20.3506C22.7629 20.3058 22.6525 20.2827 22.541 20.2827C22.4295 20.2827 22.3191 20.3058 22.2164 20.3506C22.1138 20.3954 22.021 20.461 21.9435 20.5435L14.7019 28.0014C14.5497 28.159 14.4644 28.3721 14.4644 28.5942C14.4644 28.8163 14.5497 29.0294 14.7019 29.187C14.8552 29.3434 15.0625 29.4312 15.2785 29.4312C15.4945 29.4312 15.7017 29.3434 15.855 29.187L21.9674 22.8964C22.1207 22.7399 22.328 22.6521 22.544 22.6521C22.76 22.6521 22.9672 22.7399 23.1206 22.8964L29.2389 29.187C29.3176 29.2668 29.411 29.3296 29.5136 29.3718C29.6162 29.414 29.7259 29.4347 29.8364 29.4327C30.0443 29.4221 30.2416 29.3349 30.3921 29.187Z" fill="black"/>
<path d="M30.3921 24.6119C30.5442 24.4542 30.6296 24.241 30.6296 24.0187C30.6296 23.7965 30.5442 23.5833 30.3921 23.4256L23.1385 15.9634C23.0602 15.8824 22.9671 15.8181 22.8646 15.7742C22.762 15.7304 22.6521 15.7078 22.541 15.7078C22.4299 15.7078 22.32 15.7304 22.2174 15.7742C22.1149 15.8181 22.0218 15.8824 21.9435 15.9634L14.7019 23.4256C14.5497 23.5833 14.4644 23.7965 14.4644 24.0187C14.4644 24.241 14.5497 24.4542 14.7019 24.6119C14.8552 24.7684 15.0625 24.8563 15.2785 24.8563C15.4945 24.8563 15.7017 24.7684 15.855 24.6119L21.9674 18.3238C22.0425 18.2448 22.1322 18.182 22.2312 18.1392C22.3302 18.0964 22.4366 18.0743 22.544 18.0743C22.6514 18.0743 22.7577 18.0964 22.8567 18.1392C22.9558 18.182 23.0455 18.2448 23.1206 18.3238L29.2389 24.6119C29.3176 24.6917 29.411 24.7546 29.5136 24.7968C29.6162 24.839 29.7259 24.8597 29.8364 24.8578C30.0443 24.8472 30.2416 24.7599 30.3921 24.6119Z" fill="black"/>
</svg>
