<svg xmlns="http://www.w3.org/2000/svg" fill="none" viewBox="0 0 1920 947.6734693877552" style="max-height: 500px" width="1920" height="947.6734693877552">
<mask height="940" width="1920" y="0" x="0" maskUnits="userSpaceOnUse" style="mask-type:alpha" id="mask0_981_391">
<rect fill="#D9D9D9" height="940" width="1920"/>
</mask>
<g mask="url(#mask0_981_391)">
<rect fill="#E8BCEF" height="822.19" width="1920" y="-0.189941"/>
<mask height="823" width="1920" y="-1" x="0" maskUnits="userSpaceOnUse" style="mask-type:alpha" id="mask1_981_391">
<rect fill="#D9D9D9" height="822.19" width="1920" y="-0.189941"/>
</mask>
<g mask="url(#mask1_981_391)">
<mask height="1358" width="1920" y="-535" x="0" maskUnits="userSpaceOnUse" style="mask-type:luminance" id="mask2_981_391">
<path fill="white" d="M1920 -534.399H0V822.597H1920V-534.399Z"/>
</mask>
<g mask="url(#mask2_981_391)">
<path fill="#D9B5EB" d="M2094.53 156.007C2051.59 154.371 2039.3 241.372 1992.16 247.192C1945.01 253.012 1933.26 229.599 1856.66 206.105C1780.07 182.611 1706.53 152.467 1653.52 131.977C1619.46 118.782 1602.99 95.2345 1573.2 102.476C1556.63 106.525 1536.74 127.069 1514.97 123.931C1485.93 119.72 1457.37 110.95 1440.62 91.748C1422.23 70.7217 1410.02 24.1636 1375.6 22.0181C1353.92 20.6771 1350.1 47.0136 1315.68 74.3423C1297.83 88.3956 1286.56 109.556 1265.96 127.981C1245.74 146.057 1216.31 161.344 1195.38 181.244C1102.44 269.747 1012.26 364.606 1012.26 364.606H1613.16C1613.16 364.606 1889.96 375.334 2208.1 385.311V212.837C2170.51 221.231 2144.4 157.911 2094.53 156.007Z"/>
<path fill="#D9B5EB" d="M888.16 144.555C871.281 122.215 861.184 111.326 846.523 99.8474C825.844 83.7559 815.721 74.7983 795.527 74.8251C773.625 74.8251 778.52 44.439 746.24 48.891C732.191 50.8488 696.545 95.6905 681.17 102.529C671.558 106.82 658.656 95.5832 643.561 80.5376C628.466 65.492 608.221 56.4003 589.837 45.324C571.454 34.2477 554.753 21.4282 535.17 38.1633C503.553 65.1702 475.837 73.0283 450.289 69.9977C428.31 67.3158 416.759 47.8181 396.922 33.7113C381.445 22.7154 357.503 18.317 342.153 5.87295C302.81 -26.015 278.052 -7.80481 243.63 15.4474C227.414 26.4165 209.055 38.5119 185.98 46.9599C114.051 73.3768 131.593 99.7938 92.9899 123.287C90.2365 124.993 87.2535 126.25 84.1423 127.015V299.516C465.128 312.926 1058.77 324.968 1065.8 308.179C1075.01 286.16 997.902 226.648 944.306 179.098C926.432 163.275 896.727 155.899 888.16 144.555Z"/>
<path fill="url(#paint0_linear_981_391)" d="M-112.672 163.811C-74.6042 136.107 49.7225 -61.148 94.3434 -42.3746C140.724 -22.8503 189.934 85.6333 225.019 68.8981C260.104 52.1629 305.464 112.318 323.006 134.632C340.549 156.945 481.296 245.476 525.152 223.135C535.121 218.066 551.721 216.725 563.934 210.181C577.779 202.753 587.417 190.094 602.18 184.06C631.656 171.991 660.825 166.171 681.223 180.573C697.797 192.293 717.685 217.691 744.661 234.212C761.745 244.751 785.458 246.951 800.96 255.265C819.395 265.107 835.255 272.241 844.918 274.038C852.568 275.433 862.92 261.165 879.799 247.219C891.375 237.671 907.846 231.127 921.59 218.496C933.268 207.768 950.887 200.688 963.1 190.014C975.313 179.34 981.586 165.447 993.085 156.865C1016.75 139.218 1038.42 127.605 1054 130.26C1065.88 132.272 1080.8 146.915 1098.65 155.605C1116.49 164.294 1137.73 167.217 1155.66 177.811C1169.4 185.856 1184.04 196.343 1199.36 198.515C1213 200.419 1227.26 194.734 1240.77 191.944C1254.28 189.155 1262.93 180.52 1275.01 173.171C1283.35 167.995 1296.48 166.359 1305.05 161.693C1331.08 147.478 1356.33 137.287 1369.76 141.551C1376.93 143.858 1388.45 152.279 1399.95 154.827C1419.69 159.413 1442.41 158.501 1465.05 162.309C1493.66 167.11 1519.66 170.355 1530.6 169.577C1540.8 168.853 1550.44 159.44 1565.69 152.601C1582.08 145.252 1604.49 140.184 1623.97 130.851C1640.88 122.805 1664.34 122.805 1681.7 116.851C1694.45 112.479 1701.38 101.349 1713.65 99.8475C1726.59 98.3385 1738.97 93.4424 1749.65 85.6066C1763.93 75.3885 1774.72 61.4692 1786.22 49.7492C1798.56 37.0637 1811.71 26.7115 1830.86 25.6119C1844.22 24.8878 1853.81 30.9758 1864.44 34.0869C1877.85 38.0561 1891.5 39.9602 1901.82 47.2819C1932.75 69.3004 1953.02 99.4451 1983.01 95.3418C2093.49 80.1353 2144.56 327.81 2197.19 394.805C2249.81 461.799 -165.172 353.691 -165.172 353.691C-165.172 353.691 -174.071 208.572 -112.672 163.811Z"/>
<path fill="url(#paint1_linear_981_391)" d="M1952.28 250.035C1896.8 224.851 1773.8 219.219 1709.72 212.032C1654.72 205.837 1631.24 252.824 1541.77 254.728C1525.17 254.976 1508.58 253.936 1492.12 251.617C1460.99 247.379 1437.3 258.965 1411.73 267.038C1388.78 274.279 1363.28 277.176 1343.83 289.432C1320.04 304.37 1303.36 325.289 1283.37 339.879C1275.6 345.565 1265.53 348.81 1256.81 352.35C1253.97 353.535 1250.91 353.996 1247.87 353.693C1244.84 353.39 1241.91 352.332 1239.34 350.607C1219.43 336.848 1191.43 327.676 1163.54 312.63C1145.69 302.976 1130.9 284.926 1110.73 276.264C1096.99 270.39 1082.84 264.812 1068.46 259.636C1040.41 249.605 1006.93 265 971.564 279.992C950.273 289.03 928.345 293.589 906.443 304.826C885.841 315.393 868.528 330.438 848.742 338.538C829.491 346.423 807.741 347.495 790.479 349.078C774.355 350.783 758.076 349.879 742.212 346.396C718.933 341.032 701.11 329.902 681.018 317.458C666.247 307.944 650.918 299.426 635.122 291.953C623.944 286.917 612.473 282.635 600.777 279.133C591.37 276.188 581.751 274.054 572.015 272.75C504.09 263.873 472.396 306.811 433.283 310.297C389.044 314.186 341.644 271.409 291.082 275.298C240.52 279.187 185.369 164.589 123.231 164.589C61.093 164.589 -36.9965 246.521 -52.8305 254.138C-125.524 289.137 -91.281 535.739 -91.281 535.739L857.232 510.958C738.286 575.324 805.166 676.325 805.166 676.325L2004.04 730.232C2004.04 730.232 2007.74 275.245 1952.28 250.035Z"/>
<path fill="url(#paint2_linear_981_391)" d="M1738.1 126.666C1712.22 129.858 1681.44 142.758 1646.82 162.094C1619.26 177.516 1593.58 201.841 1561.73 223.779C1531.57 244.671 1495.44 263.069 1462.47 287.099C1431.72 309.519 1408.65 338.404 1376.24 361.227C1351.61 378.579 1316.65 387 1291.46 403.467C1278.1 412.21 1264.51 408.455 1250.23 414.436C1240.31 418.566 1229.98 433.478 1219.45 435.248C1202.24 438.117 1187.53 421.221 1168.64 421.57C1147.14 421.972 1121.46 438.922 1102.78 430.286L1021.97 380.027C1009.82 373.041 996.036 369.835 982.22 370.785C968.404 371.735 955.13 376.801 943.95 385.391L934.388 392.847C931.183 395.31 927.34 396.687 923.372 396.792C919.403 396.898 915.499 395.727 912.18 393.437C900.706 385.391 885.994 373.537 869.446 359.94C846.957 341.488 814.524 328.159 788.516 308.983C766.843 292.892 751.621 270.283 731.784 260.709C704.986 247.809 677.805 270.793 643.179 294.233C622.399 308.313 594.045 318.37 575.152 332.691C563.601 317.994 548.353 295.654 530.403 269.559C510.183 240.058 474.308 216.43 448.811 182.933C418.035 142.704 396.719 92.8474 363.036 64.4191C315.509 24.3513 267.65 5.57789 226.853 35.4813C209.005 48.4618 180.116 74.8249 145.108 109.127C128.636 125.218 117.953 148.551 99.365 167.566C-46.8897 317.297 -249.775 534.479 -234.655 553.091C-223.104 567.306 137.943 554.352 463.191 539.682L456.332 674.314L744.456 665.839C629.207 711.432 526.4 755.63 512.427 767.51C512.427 767.51 2314.17 859.715 2346.81 822.838C2371.67 794.759 2178.34 400.41 1952.03 222.545C1932.24 207.017 1917.15 176.952 1896.9 165.474C1869.59 149.865 1836.27 148.068 1808.6 141.336C1783.03 135.329 1763.32 123.582 1738.1 126.666Z"/>
<path fill="url(#paint3_linear_981_391)" d="M2613.43 857.811C2603.24 836.356 2459.68 440.344 2390.76 362.756C2371.55 340.714 2354.13 317.022 2338.67 291.926C2303.92 236.491 2249.43 164.026 2213.55 184.998C2156.95 217.932 2062.63 396.87 2013.6 354.388C2002.48 344.787 1987.62 328.239 1969.85 308.796C1962.4 300.75 1947.03 295.869 1938.64 287.072C1918.44 265.885 1903.15 239.79 1878.8 220.641C1860.11 205.944 1838.59 200.044 1818.39 190.952C1786.67 176.711 1755.51 164.857 1722.78 176.657C1703.14 183.738 1683.69 201.009 1664.87 223.886C1652.38 239.093 1644.47 259.77 1632.67 278.57C1619.56 299.462 1602.66 318.799 1590.75 340.55C1580.55 359.323 1585.98 384.882 1579.12 402.824C1573.51 417.547 1555.49 425.137 1548.96 436.348C1534.04 461.987 1513.44 475.262 1504.34 476.147C1486.95 477.81 1470.02 466.895 1453.34 455.148C1430.24 438.734 1407.85 420.739 1386.08 433.236C1381.44 435.918 1375.17 450.186 1366.8 469.818C1359.97 485.909 1351.76 505.434 1341.89 525.092C1332.95 543.472 1322.31 560.881 1310.12 577.068C1300.55 589.905 1288.84 600.81 1275.57 609.251C1262.94 617.013 1251.72 627.064 1242.42 638.94C1231.38 653.54 1221.73 669.252 1213.61 685.846C1205.27 701.75 1197.75 717.091 1189.13 729.401C1177.46 746.136 1163.79 757.346 1143.57 756.917C1113.66 756.327 1086.89 738.144 1062.64 713.309C1044.64 694.777 1025.57 676.701 1010.14 655.004C999.713 640.388 992.293 621.829 982.884 609.117C964.143 583.773 947.187 564.865 931.506 562.934C906.314 559.85 898.053 584.389 831.224 618.798C797.236 636.231 742.262 577.014 713.501 563.819C670.589 544.161 647.87 502.886 614.494 477.327C577.216 448.792 533.284 431.306 502.304 405.586C473.645 381.824 454.572 348.059 434.098 330.492C407.937 308.072 385.652 297.344 377.824 291.873C355.412 276.13 334.733 283.559 305.972 293.616C288.71 299.677 267.726 296.083 247.327 306.355C234.783 312.711 219.815 326.389 205.97 333.174C188.657 341.676 159.488 340.067 132.027 318.424C111.17 302.064 100.767 266.931 78.4817 241.989C59.5115 220.775 33.1214 201.117 15.6555 178.723C5.17599 165.313 6.14486 140.559 -3.11079 128.008C-38.3231 80.3231 -74.0198 54.2549 -74.0198 54.2549L-88.7574 891.013L533.896 889.028C496.006 935.157 471.63 966.026 471.63 966.026C471.63 966.026 2624.78 881.331 2613.43 857.811Z"/>
</g>
</g>
<path fill-opacity="0.2" fill="url(#paint4_linear_981_391)" d="M1284.69 -1.51567L1627.47 -1.84342C1633.87 -1.87568 1640.18 -0.644978 1646.04 1.77781C1651.9 4.20058 1657.19 7.76743 1661.6 12.2726C1666.02 16.7777 1669.47 22.132 1671.76 28.0266C1674.05 33.9211 1675.14 40.2394 1674.96 46.6167L1666.58 388.213C1666.45 394.59 1665.05 400.911 1662.47 406.81C1659.89 412.709 1656.17 418.07 1651.54 422.584C1646.9 427.098 1641.44 430.675 1635.46 433.109C1629.48 435.543 1623.11 436.786 1616.71 436.766C1610.31 436.798 1604 435.568 1598.14 433.145C1592.29 430.722 1587 427.155 1582.58 422.65C1578.17 418.145 1574.72 412.791 1572.42 406.896C1570.13 401.001 1569.04 394.683 1569.23 388.306L1576.77 94.8745L1282.31 95.4977C1269.4 95.51 1257.14 90.4113 1248.24 81.3233C1243.83 76.8233 1240.37 71.4794 1238.07 65.5967C1235.77 59.7139 1234.66 53.4075 1234.82 47.0375C1235.14 34.1728 1240.57 21.83 1249.92 12.7245C1254.55 8.21595 1260 4.63783 1265.97 2.1945C1271.93 -0.248836 1278.29 -1.50956 1284.69 -1.51567ZM1102.43 129.096L1461.1 133.295C1467.8 133.346 1474.42 134.718 1480.58 137.332C1486.74 139.947 1492.32 143.751 1497 148.526C1501.68 153.302 1505.36 158.953 1507.84 165.155C1510.32 171.357 1511.54 177.986 1511.43 184.661L1507.22 542.193C1507.17 548.868 1505.79 555.467 1503.17 561.609C1500.55 567.752 1496.73 573.315 1491.94 577.98C1487.15 582.644 1481.48 586.317 1475.26 588.786C1469.04 591.256 1462.39 592.472 1455.69 592.367C1449 592.316 1442.38 590.943 1436.21 588.329C1430.05 585.715 1424.47 581.911 1419.79 577.135C1415.11 572.36 1411.43 566.708 1408.95 560.507C1406.47 554.305 1405.25 547.675 1405.36 541.001L1409.34 233.885L1101.23 230.636C1087.73 230.478 1074.83 224.977 1065.4 215.344C1060.72 210.574 1057.04 204.934 1054.55 198.744C1052.06 192.554 1050.82 185.937 1050.9 179.27C1051.06 165.805 1056.58 152.954 1066.24 143.545C1071.03 138.886 1076.68 135.212 1082.89 132.733C1089.1 130.254 1095.74 129.018 1102.43 129.096ZM1142.42 435.442L844.062 429.128C838.499 429.011 832.987 429.987 827.842 432.001C822.697 434.015 818.02 437.028 814.077 440.867C806.113 448.621 801.625 459.27 801.6 470.474C801.587 476.021 802.671 481.537 804.788 486.707C806.906 491.877 810.016 496.6 813.941 500.606C821.868 508.696 832.634 513.374 843.871 513.612L1100.16 518.737L1099.28 774.263C1099.25 779.816 1100.31 785.342 1102.42 790.523C1104.53 795.703 1107.64 800.434 1111.57 804.445C1115.5 808.455 1120.17 811.665 1125.32 813.889C1130.47 816.112 1135.98 817.306 1141.55 817.401C1147.12 817.542 1152.64 816.582 1157.8 814.576C1162.96 812.57 1167.64 809.559 1171.59 805.715C1175.54 801.871 1178.67 797.271 1180.8 792.181C1182.93 787.091 1184.03 781.61 1184.02 776.056L1184.69 478.58C1184.73 473.027 1183.66 467.5 1181.55 462.32C1179.44 457.14 1176.33 452.408 1172.4 448.398C1168.47 444.388 1163.8 441.178 1158.65 438.954C1153.51 436.73 1147.99 435.537 1142.42 435.442ZM941.656 285.64L1300.33 289.838C1307.02 289.889 1313.64 291.262 1319.8 293.876C1325.97 296.49 1331.55 300.294 1336.23 305.07C1340.91 309.845 1344.59 315.497 1347.07 321.698C1349.55 327.9 1350.77 334.53 1350.66 341.204L1346.45 698.736C1346.4 705.412 1345.02 712.011 1342.4 718.153C1339.78 724.295 1335.96 729.859 1331.17 734.523C1326.38 739.188 1320.71 742.86 1314.49 745.33C1308.26 747.799 1301.61 749.016 1294.92 748.91C1288.22 748.859 1281.6 747.487 1275.44 744.873C1269.28 742.258 1263.7 738.454 1259.02 733.679C1254.34 728.903 1250.65 723.252 1248.18 717.05C1245.7 710.848 1244.48 704.219 1244.59 697.544L1248.56 390.428L940.46 387.179C926.952 387.021 914.061 381.52 904.622 371.887C899.948 367.118 896.262 361.477 893.775 355.287C891.288 349.098 890.049 342.48 890.127 335.813C890.286 322.348 895.804 309.498 905.467 300.088C910.252 295.429 915.911 291.755 922.12 289.276C928.33 286.797 934.968 285.562 941.656 285.64Z" clip-rule="evenodd" fill-rule="evenodd"/>
<path fill="url(#paint5_linear_981_391)" d="M728.679 287.294L553.421 287.388C550.153 287.389 546.917 288.033 543.898 289.281C540.879 290.529 538.137 292.358 535.827 294.663C531.163 299.318 528.544 305.63 528.548 312.209C528.549 315.467 529.195 318.693 530.447 321.702C531.699 324.711 533.534 327.445 535.846 329.748C540.516 334.398 546.847 337.008 553.448 337.004L703.994 336.749L703.9 486.823C703.888 490.085 704.525 493.316 705.772 496.332C707.02 499.347 708.854 502.086 711.169 504.391C713.483 506.696 716.233 508.522 719.259 509.762C722.286 511.003 725.528 511.633 728.8 511.618C732.072 511.63 735.314 510.996 738.338 509.752C741.363 508.508 744.111 506.68 746.423 504.373C748.736 502.065 750.567 499.324 751.811 496.307C753.056 493.291 753.688 490.058 753.673 486.797L753.579 312.089C753.591 308.828 752.954 305.596 751.707 302.581C750.459 299.565 748.625 296.826 746.31 294.521C743.995 292.216 741.246 290.391 738.219 289.15C735.193 287.91 731.951 287.279 728.679 287.294ZM651.073 364.739L475.815 364.833C472.547 364.834 469.311 365.478 466.292 366.726C463.274 367.974 460.531 369.803 458.222 372.108C453.557 376.763 450.938 383.075 450.942 389.654C450.944 392.912 451.589 396.138 452.841 399.147C454.094 402.156 455.928 404.89 458.24 407.193C462.91 411.843 469.242 414.453 475.842 414.449L626.388 414.195L626.294 564.268C626.283 567.53 626.919 570.762 628.166 573.777C629.414 576.792 631.248 579.531 633.563 581.836C635.878 584.141 638.628 585.967 641.654 587.207C644.68 588.448 647.922 589.078 651.194 589.063C654.466 589.075 657.708 588.441 660.733 587.197C663.758 585.953 666.505 584.125 668.818 581.818C671.13 579.51 672.961 576.769 674.206 573.752C675.45 570.736 676.083 567.503 676.067 564.242L675.973 389.534C675.985 386.273 675.349 383.041 674.101 380.026C672.853 377.011 671.019 374.271 668.704 371.966C666.39 369.661 663.64 367.836 660.614 366.595C657.588 365.355 654.345 364.724 651.073 364.739ZM573.467 442.184L398.209 442.278C394.941 442.279 391.705 442.923 388.686 444.171C385.667 445.42 382.925 447.248 380.615 449.553C375.95 454.208 373.332 460.52 373.335 467.099C373.337 470.357 373.983 473.583 375.235 476.592C376.487 479.601 378.322 482.335 380.634 484.638C385.304 489.288 391.635 491.898 398.235 491.895L548.782 491.64L548.688 641.713C548.676 644.975 549.312 648.207 550.56 651.222C551.807 654.237 553.642 656.976 555.956 659.281C558.271 661.587 561.021 663.412 564.047 664.652C567.073 665.893 570.316 666.524 573.588 666.508C576.86 666.52 580.102 665.886 583.126 664.642C586.151 663.399 588.899 661.57 591.211 659.263C593.524 656.955 595.355 654.214 596.599 651.197C597.843 648.181 598.476 644.948 598.461 641.687L598.367 466.979C598.378 463.718 597.742 460.486 596.495 457.471C595.247 454.456 593.413 451.716 591.098 449.411C588.783 447.106 586.033 445.281 583.007 444.04C579.981 442.8 576.739 442.169 573.467 442.184ZM242.998 597.168L418.255 597.074C421.527 597.059 424.77 597.69 427.796 598.93C430.822 600.171 433.572 601.996 435.887 604.301C438.202 606.606 440.036 609.345 441.283 612.361C442.531 615.376 443.167 618.608 443.156 621.869L443.25 796.577C443.265 799.838 442.632 803.071 441.388 806.087C440.144 809.104 438.312 811.845 436 814.153C433.688 816.46 430.94 818.288 427.915 819.532C424.89 820.776 421.648 821.41 418.377 821.398C415.105 821.413 411.862 820.783 408.836 819.542C405.81 818.302 403.06 816.476 400.745 814.171C398.43 811.866 396.596 809.127 395.349 806.112C394.101 803.096 393.465 799.865 393.477 796.603L393.571 646.529L243.024 646.784C236.424 646.788 230.093 644.178 225.423 639.528C223.111 637.225 221.276 634.491 220.024 631.482C218.771 628.473 218.126 625.247 218.124 621.989C218.121 615.41 220.739 609.098 225.404 604.443C227.714 602.138 230.456 600.309 233.475 599.061C236.494 597.813 239.729 597.169 242.998 597.168ZM320.603 519.722L495.861 519.629C499.133 519.614 502.376 520.245 505.402 521.485C508.428 522.726 511.178 524.551 513.492 526.856C515.807 529.161 517.641 531.9 518.889 534.916C520.136 537.931 520.773 541.163 520.761 544.424L520.855 719.132C520.871 722.393 520.238 725.626 518.994 728.642C517.749 731.659 515.918 734.4 513.606 736.707C511.293 739.015 508.545 740.843 505.521 742.087C502.496 743.331 499.254 743.965 495.982 743.953C492.71 743.968 489.468 743.338 486.442 742.097C483.416 740.857 480.666 739.031 478.351 736.726C476.036 734.421 474.202 731.682 472.954 728.667C471.707 725.651 471.07 722.42 471.082 719.158L471.176 569.084L320.63 569.339C314.03 569.343 307.698 566.732 303.028 562.082C300.716 559.78 298.882 557.046 297.629 554.037C296.377 551.028 295.732 547.802 295.73 544.544C295.726 537.965 298.345 531.653 303.009 526.998C305.319 524.693 308.062 522.864 311.08 521.616C314.099 520.368 317.335 519.724 320.603 519.722Z" clip-rule="evenodd" fill-rule="evenodd"/>
<path fill="#B28B67" d="M184.116 364.219C194.213 386.227 327.62 413.936 328.948 415.577C329.539 416.307 328.028 446.58 324.416 506.397L335.262 506.626C349.924 439.399 355.272 403.192 351.305 398.007C345.626 390.582 307.315 373.18 236.373 345.8L184.116 364.219Z" clip-rule="evenodd" fill-rule="evenodd"/>
<path fill="#2F3676" d="M322.578 493.818L340.145 493.817C359.358 445.888 361.051 411.406 353.047 397.009C347.712 387.411 309.518 370.021 238.467 344.841L183.038 364.667C204.406 416.349 319.54 419.158 321.716 420.907C323.893 422.657 318.768 449.25 322.578 493.818Z" clip-rule="evenodd" fill-rule="evenodd"/>
<path fill="#E4E4E4" d="M320.086 505.93C318.978 508.853 318.426 511.041 318.429 512.492C318.434 514.258 318.739 516.835 319.345 520.223C321.429 520.225 340.157 520.241 375.528 520.271C376.977 515.528 376.128 512.966 372.982 512.585C369.835 512.204 367.222 511.86 365.14 511.553L339 500.088C338.497 499.867 337.908 500.089 337.686 500.583C337.682 500.591 337.678 500.599 337.675 500.608L336.005 504.609C333.097 505.942 330.732 506.608 328.911 506.606C327.432 506.605 325.388 506.016 322.779 504.839C321.778 504.388 320.596 504.818 320.14 505.801C320.12 505.843 320.102 505.886 320.086 505.93Z" clip-rule="evenodd" fill-rule="evenodd"/>
<path fill="#997659" d="M196.571 359.725L190.655 491.36L179.014 605.028L190.217 601.009L234.548 346.102L196.571 359.725Z" clip-rule="evenodd" fill-rule="evenodd"/>
<path fill="#E4E4E4" d="M176.587 603.744C176.566 606.882 176.809 609.136 177.318 610.508C177.936 612.176 179.12 614.509 180.868 617.508C182.823 616.806 200.397 610.5 233.59 598.588C233.298 593.615 231.61 591.479 228.526 592.181C225.441 592.883 222.87 593.44 220.81 593.852L192.297 591.836C191.749 591.797 191.274 592.205 191.237 592.747C191.236 592.756 191.235 592.765 191.235 592.775L191.062 597.121C188.797 599.363 186.81 600.791 185.102 601.404C183.714 601.902 181.591 602.035 178.734 601.803C177.638 601.714 176.679 602.52 176.593 603.604C176.59 603.65 176.588 603.697 176.587 603.744Z" clip-rule="evenodd" fill-rule="evenodd"/>
<path fill="#5C63AB" d="M175.868 583.422L202.471 579.092C211.375 544.299 249.518 401.049 238.605 344.647L183.181 364.528C167.959 413.591 183.701 548.49 175.868 583.422Z" clip-rule="evenodd" fill-rule="evenodd"/>
<path fill="#B28B67" d="M172.929 242.389C167.805 237.618 164.025 231.513 163.757 224.264C162.986 203.377 192.922 204.908 199.787 214.783C206.652 224.658 208.859 251.273 201.661 253.905C198.79 254.955 192.304 253.775 185.493 250.652L192.54 278.098L168.822 280.54L172.929 242.389Z" clip-rule="evenodd" fill-rule="evenodd"/>
<path fill="#191847" d="M202.568 219.29C202.185 217.956 201.445 216.507 200.842 215.27C200.063 213.676 198.996 212.276 197.847 210.971C195.683 208.514 193.173 206.353 190.474 204.622C185.543 201.461 179.541 199.962 173.937 201.225C171.108 201.863 168.442 203.221 166.267 205.248C164.303 207.08 162.503 209.665 159.75 210.12C156.755 210.615 153.707 208.291 151.113 206.928C148.189 205.392 145.144 204.366 141.902 204.179C136.469 203.866 131.647 206.149 128.436 210.821C125.018 215.792 122.902 222.785 126.133 228.574C126.734 229.65 127.452 230.536 128.42 231.232C129.308 231.869 130.627 232.51 131.081 233.628C131.563 234.817 130.694 236.504 130.41 237.65C130.005 239.293 129.711 241.003 130.067 242.707C130.652 245.504 132.758 248.016 134.873 249.677C137.026 251.367 139.54 252.204 142.153 252.441C143.898 252.599 145.665 252.604 147.388 252.3C148.243 252.149 148.978 251.836 149.793 251.564C150.586 251.299 151.063 251.464 151.8 251.83C155.222 253.53 158.75 253.961 162.414 253.279C165.506 252.704 169.021 251.593 171.338 249.236C173.911 246.618 173.505 243.415 172.467 240.054C173.209 240.324 175.181 240.336 173.868 239.091C173.347 238.598 172.451 238.468 171.824 238.211C171.095 237.911 170.342 237.505 169.741 236.956C167.314 234.741 168.957 229.555 171.585 228.459C175.49 226.829 177.003 232.333 180.043 233.485C181.79 234.147 183.4 232.831 184.515 231.542C186.008 229.815 186.917 227.636 187.667 225.438C188.284 223.627 188.844 221.798 189.478 219.995C189.774 219.152 190.855 216.747 190.089 215.907C192.919 215.045 196.268 215.892 198.926 217.181C200.025 217.714 200.886 218.337 201.558 219.408C201.702 219.637 202.036 220.329 202.361 220.325C202.966 220.319 202.664 219.625 202.568 219.29Z" clip-rule="evenodd" fill-rule="evenodd"/>
<path fill="#B28B67" d="M270.399 324.161L308.012 335.671C316.907 335.071 324.649 335.454 331.238 336.818C332.933 337.538 335.314 339.352 329.824 340.762C324.334 342.172 318.623 343.898 318.516 345.945C318.408 347.991 322.399 349.041 321.757 351.971C321.33 353.924 315.21 351.467 303.397 344.601L269.432 342.554L270.399 324.161ZM155.475 364.002L175.156 357.408C176.558 400.099 177.189 422.789 177.05 425.477C176.738 431.526 184.181 438.051 187.676 441.729C182.254 446.732 179.264 436.034 172.473 442.487C166.275 448.376 162.808 456.413 152.456 454.125C151.183 453.843 149.192 451.834 151.311 449.016C156.591 441.995 163.694 430.434 164.097 427.286C164.646 422.992 161.772 401.897 155.475 364.002Z" clip-rule="evenodd" fill-rule="evenodd"/>
<path fill="#E87613" d="M183.001 263.99L190.645 259.86C229.793 275.271 259.464 320.332 305.577 333.887L300.493 347.762C233.641 361.704 196.663 307.007 183.001 263.99Z" clip-rule="evenodd" fill-rule="evenodd"/>
<path fill="#DDE3E9" d="M182.815 376.589C215.393 365.535 239.357 357.404 254.706 352.196C257.991 351.082 255.733 346.622 254.431 344.427C239.405 319.094 207.721 297.041 194.133 258.334L172.273 262.169C164.653 295.142 170.457 330.586 182.815 376.589Z" clip-rule="evenodd" fill-rule="evenodd"/>
<path fill="#FF9B21" d="M155.693 297.671C152.383 297.841 149.301 296.663 146.447 294.137C134.144 283.248 134.28 274.908 141.523 269.725C148.766 264.541 157.749 267.108 170.651 262.73C171.353 262.492 172.011 262.317 172.625 262.205L179.243 260.368C219.672 316.176 239.357 355.883 238.299 379.49L181.727 398.686C181.076 407.517 180.141 415.079 178.922 421.371L163.507 426.602C145.848 380.917 143.243 337.941 155.693 297.671Z" clip-rule="evenodd" fill-rule="evenodd"/>
<path fill-opacity="0.1" fill="black" d="M182.793 362.579C189.717 376.631 196.343 386.286 202.671 391.545L181.674 398.669C182.434 388.367 182.807 376.337 182.793 362.579Z" clip-rule="evenodd" fill-rule="evenodd"/>
</g>
<defs>
<linearGradient gradientUnits="userSpaceOnUse" y2="-43.5279" x2="1016.08" y1="416.77" x1="1016.08" id="paint0_linear_981_391">
<stop stop-color="#CBA9EB"/>
<stop stop-color="#C8A4EA" offset="0.28"/>
<stop stop-color="#BF98E8" offset="0.61"/>
<stop stop-color="#AE81E5" offset="0.98"/>
<stop stop-color="#AC7FE5" offset="1"/>
</linearGradient>
<linearGradient gradientUnits="userSpaceOnUse" y2="164.481" x2="952.415" y1="730.232" x1="952.415" id="paint1_linear_981_391">
<stop stop-color="#B47FE1"/>
<stop stop-color="#B17CE1" offset="0.3"/>
<stop stop-color="#9C6FDF" offset="0.67"/>
<stop stop-color="#805EDC" offset="1"/>
</linearGradient>
<linearGradient gradientUnits="userSpaceOnUse" y2="20.838" x2="1056.7" y1="831.555" x1="1056.7" id="paint2_linear_981_391">
<stop stop-color="#A06EDD"/>
<stop stop-color="#9967DC" offset="0.26"/>
<stop stop-color="#8453D8" offset="0.58"/>
<stop stop-color="#6132D2" offset="0.92"/>
<stop stop-color="#5929D0" offset="1"/>
</linearGradient>
<linearGradient gradientUnits="userSpaceOnUse" y2="54.2549" x2="1262.41" y1="966.026" x1="1262.41" id="paint3_linear_981_391">
<stop stop-color="#060D4E"/>
<stop stop-color="#00082F" offset="0.83"/>
</linearGradient>
<linearGradient gradientUnits="userSpaceOnUse" y2="728.248" x2="630.506" y1="152.512" x1="1767.67" id="paint4_linear_981_391">
<stop stop-color="white" offset="0.525"/>
<stop stop-opacity="0" stop-color="#A215FF" offset="0.683728"/>
<stop stop-opacity="0" stop-color="#A215FF" offset="0.945"/>
</linearGradient>
<linearGradient gradientUnits="userSpaceOnUse" y2="744.413" x2="261.507" y1="291.024" x1="743.226" id="paint5_linear_981_391">
<stop stop-opacity="0" stop-color="#A215FF"/>
<stop stop-opacity="0.1" stop-color="#A215FF" offset="0.125"/>
<stop stop-color="#A215FF" offset="0.525"/>
<stop stop-opacity="0.297619" stop-color="#A215FF" offset="0.725"/>
<stop stop-opacity="0" stop-color="#A215FF" offset="0.945"/>
</linearGradient>
</defs>
</svg>