<svg width="35" height="33" viewBox="0 0 35 33" fill="none" xmlns="http://www.w3.org/2000/svg">
<path fill-rule="evenodd" clip-rule="evenodd" d="M34.1443 17.4293L19.585 32.1297C19.3143 32.4052 18.9922 32.624 18.6373 32.7734C18.2823 32.9228 17.9016 32.9998 17.517 33C17.1323 33.0002 16.7515 32.9236 16.3964 32.7746C16.0413 32.6256 15.719 32.4072 15.448 32.1319L0.873064 17.4473C0.599848 17.1743 0.382929 16.8494 0.234828 16.4914C0.0867239 16.1334 0.0103727 15.7494 0.0101668 15.3615C0.00995906 14.9736 0.0859032 14.5894 0.233626 14.2313C0.381345 13.8731 0.597916 13.548 0.870843 13.2747C1.14154 12.9991 1.46365 12.7803 1.81859 12.631C2.17354 12.4816 2.5543 12.4046 2.93891 12.4044C3.32351 12.4042 3.70435 12.4808 4.05946 12.6298C4.41457 12.7787 4.73691 12.9972 5.00789 13.2724L17.5132 25.9012L30.005 13.2589C30.5533 12.7053 31.2972 12.394 32.0731 12.3936C32.4573 12.3934 32.8377 12.4695 33.1927 12.6176C33.5477 12.7657 33.8703 12.9829 34.1421 13.2567C34.691 13.8097 34.9996 14.56 35 15.3426C35.0002 15.73 34.9247 16.1137 34.7779 16.4718C34.6311 16.8298 34.4158 17.1552 34.1443 17.4293ZM34.1341 5.03573L19.5749 19.7361C19.3042 20.0116 18.982 20.2304 18.6271 20.3798C18.2722 20.5292 17.8914 20.6062 17.5068 20.6064C17.1222 20.6066 16.7413 20.53 16.3862 20.381C16.0311 20.232 15.7088 20.0136 15.4378 19.7383L0.862898 5.05372C0.589682 4.7807 0.372766 4.45582 0.224666 4.09781C0.0765632 3.73981 0.000206295 3.35577 4.24983e-07 2.96786C-0.000207306 2.57994 0.0757407 2.19582 0.223463 1.83766C0.371182 1.4795 0.587755 1.15438 0.860681 0.881064C1.13137 0.605497 1.45348 0.386719 1.80843 0.237342C2.16338 0.0879672 2.54414 0.0109525 2.92875 0.0107449C3.31335 0.0105363 3.69419 0.0871411 4.0493 0.236132C4.4044 0.385124 4.72674 0.603552 4.99773 0.878826L17.503 13.5076L29.9949 0.865304C30.5432 0.311678 31.2871 0.000419988 32.0629 4.25932e-07C32.4471 -0.000207761 32.8275 0.075904 33.1825 0.223989C33.5375 0.372075 33.8601 0.589232 34.1319 0.863066C34.6808 1.4161 34.9894 2.16641 34.9898 2.94893C34.99 3.3364 34.9146 3.72011 34.7678 4.07817C34.6209 4.43622 34.4056 4.7616 34.1341 5.03573Z" fill="#FFA215"/>
</svg>
