<svg width="443" height="528" viewBox="0 0 443 528" fill="none" xmlns="http://www.w3.org/2000/svg">
<path fill-rule="evenodd" clip-rule="evenodd" d="M254.815 104.34C261.421 96.5859 265.892 87.0829 265.145 76.4345C262.992 45.7536 220.283 52.503 211.976 67.9881C203.668 83.4732 204.655 122.752 215.392 125.52C219.674 126.624 228.796 123.92 238.08 118.324L232.252 159.55H266.66L254.815 104.34Z" fill="#B28B67"/>
<path fill-rule="evenodd" clip-rule="evenodd" d="M231.587 50.1409C236.122 49.3973 248.332 48.886 250.584 48.8863C252.023 48.8863 253.583 49.2151 254.435 47.8938C255.133 46.8118 254.877 44.9818 255.085 43.7262C255.327 42.2676 255.671 40.8278 256.018 39.3916C257.007 35.3049 258.502 31.417 260.595 27.7666C264.52 20.9182 270.271 15.5538 277.532 12.4322C285.55 8.98554 294.622 8.19632 303.246 8.89543C312.475 9.64338 320.83 12.69 329.543 15.5571C337.847 18.2891 346.544 19.3645 355.229 18.0303C363.979 16.6863 370.591 11.9437 377.971 7.44243C385.527 2.83421 394.161 -0.179728 403.094 0.513105C411.431 1.16006 419.116 4.60277 426.011 9.20174C432.461 13.5046 437.784 18.6816 440.789 25.9677C444.022 33.8054 444.019 42.4085 438.703 49.3352C430.997 59.3755 416.693 61.9719 404.792 61.7138C397.908 61.5649 391.147 60.3083 384.648 58.0225C375.981 54.9739 368.491 49.8069 360.383 45.6146C356.577 43.6473 352.644 42.0316 348.521 40.8677C344.52 39.7379 340.58 39.2197 336.957 41.6365C333.126 44.1933 329.692 46.7048 325.308 48.3054C321.102 49.8409 316.648 50.6998 312.167 50.6651C303.45 50.5978 294.856 47.8816 286.389 46.0622C279.485 44.5788 272.097 43.1004 265.058 44.5263C262.121 45.1215 257.831 46.35 256.77 49.4026C274.625 52.6386 281.638 74.7208 276.604 90.9313C273.888 99.6807 257.557 109.909 251.207 105.309C247.184 102.395 249.627 98.5693 251.207 96.0439C254.234 91.2076 255.269 84.9952 249.669 81.628C244.838 78.724 239.758 85.6203 239.662 85.6127C238.334 85.5081 226.861 79.0195 218.956 69.551C211.158 70.0133 209.975 64.8714 211.837 60.6664C213.699 56.4613 225.322 51.1691 231.587 50.1409Z" fill="#191847"/>
<path d="M280.997 528C220.029 528 170.605 480.823 170.605 422.626C170.605 364.43 220.029 317.252 280.997 317.252C341.964 317.252 391.388 364.43 391.388 422.626C391.388 480.823 341.964 528 280.997 528Z" fill="#C5CFD6"/>
<path fill-rule="evenodd" clip-rule="evenodd" d="M72.3863 511.742C90.7554 471.086 104.04 435.684 109.372 417.006C118.502 385.025 125.448 356.884 127.203 346.374C131.39 321.313 95.0008 319.854 90.1909 332.309C82.911 351.16 70.202 413.096 54.931 506.649L72.3863 511.742ZM285.458 384.152C268.604 377.49 209.583 356.642 181.118 350.745C172.938 349.05 165.01 347.475 157.556 346.052C135.4 341.823 123.922 381.792 145.26 384.863C198.401 392.511 273.738 400.409 280.185 401.296C289.222 402.538 296.05 388.339 285.458 384.152Z" fill="#B28B67"/>
<path fill-rule="evenodd" clip-rule="evenodd" d="M143.958 335.053L235.12 288.646V278.544H224.278C136.083 301.017 91.0152 315.42 89.075 321.751C89.0542 321.819 89.035 321.887 89.0176 321.956C88.9733 322.014 88.9296 322.073 88.8867 322.131C71.4083 346.169 60.9405 463.524 57.5048 472.311L90.9975 477.308C103.809 429.799 144.799 396.703 143.711 339.802C144.005 338.133 144.079 336.55 143.958 335.053Z" fill="#1F28CF"/>
<path fill-rule="evenodd" clip-rule="evenodd" d="M227.545 362.614C235.887 360.944 243.568 359.454 250.141 358.301C292.596 350.855 304.976 328.129 297.656 278.544H219.433C206.655 282.214 140.249 310.062 105.794 324.874C82.9906 334.677 90.1791 370.017 103.093 379.214C103.163 379.779 103.395 380.162 103.809 380.333C173.276 409.125 228.231 394.018 246.589 398.845L255.08 372.059L227.545 362.614Z" fill="#2B44FF"/>
<path fill-rule="evenodd" clip-rule="evenodd" d="M279.695 379.894C284.247 380.33 287.478 381.013 289.388 381.945C291.712 383.078 294.914 385.119 298.994 388.068C297.679 390.763 285.864 414.989 263.547 460.745C256.382 459.588 253.543 456.854 255.03 452.542C256.517 448.23 257.716 444.631 258.627 441.744L260.044 400.619C260.071 399.828 260.735 399.208 261.526 399.236C261.539 399.236 261.553 399.237 261.566 399.238L267.893 399.635C271.487 396.726 273.859 394.093 275.008 391.738C275.941 389.825 276.457 386.805 276.556 382.68C276.594 381.097 277.908 379.844 279.491 379.882C279.559 379.884 279.627 379.888 279.695 379.894Z" fill="#E4E4E4"/>
<path fill-rule="evenodd" clip-rule="evenodd" d="M80.7462 504.204C82.3501 508.486 83.1521 511.689 83.1521 513.815C83.1521 516.4 82.7214 520.173 81.86 525.133C78.8609 525.133 51.9073 525.133 0.999168 525.133C-1.10212 518.186 0.11087 514.436 4.63812 513.882C9.16538 513.328 12.9262 512.828 15.9207 512.381L53.5041 495.627C54.2273 495.304 55.0749 495.629 55.3973 496.352C55.4028 496.365 55.4081 496.377 55.4133 496.39L57.8291 502.25C62.0202 504.205 65.4258 505.183 68.0461 505.183C70.175 505.183 73.1151 504.323 76.8663 502.604C78.3058 501.944 80.0077 502.576 80.6676 504.015C80.6961 504.077 80.7223 504.14 80.7462 504.204Z" fill="#E4E4E4"/>
<path fill-rule="evenodd" clip-rule="evenodd" d="M146.233 239.286L94.2851 216.472C85.185 207.404 76.3976 200.512 67.9228 195.796C65.3887 194.989 61.0593 194.745 65.6784 201.492C70.2976 208.239 74.8528 215.543 73.0071 217.908C71.1614 220.272 65.8149 217.662 63.7026 221.507C62.2944 224.071 71.3068 227.137 90.7397 230.707L129.646 260.536L146.233 239.286ZM356.252 245.57L326.874 251.399C356.418 306.459 372.263 335.64 374.407 338.944C379.23 346.377 374.73 360 373.067 367.174C383.497 369.602 379.384 353.904 392.582 357.181C404.629 360.173 414.844 367.851 426.077 357.496C427.458 356.223 428.469 352.244 423.761 350.203C412.029 345.119 394.697 335.598 391.887 331.902C388.054 326.861 376.176 298.084 356.252 245.57Z" fill="#B28B67"/>
<path fill-rule="evenodd" clip-rule="evenodd" d="M247.026 135.654L234.629 133.528C207.627 159.721 196.609 222.649 178.614 230.979C161.6 238.854 137.483 231.233 108.815 220.943L100.036 240.558C126.083 268.738 181.574 292.546 204.067 278.955C240.028 257.225 248.33 179.612 247.026 135.654Z" fill="#E87613"/>
<path fill-rule="evenodd" clip-rule="evenodd" d="M301.068 291.447C251.361 291.447 214.797 291.447 191.377 291.447C186.365 291.447 187.309 284.209 188.034 280.557C196.396 238.407 229.039 192.971 229.039 132.971L260.679 128.01C286.85 170.1 295.9 221.921 301.068 291.447Z" fill="#DDE3E9"/>
<path fill-rule="evenodd" clip-rule="evenodd" d="M312.009 248.771C334.37 289.107 353.166 318.146 368.396 335.89L391.388 331.387C376.578 239.535 333.689 171.743 262.72 128.01H257.01L250.193 128.01C221.788 224.835 213.958 289.349 226.701 321.553H325.44C323.878 297.989 318.869 273.069 312.009 248.771Z" fill="#FF9B21"/>
</svg>
