<svg width="25" height="28" viewBox="0 0 25 28" fill="none" xmlns="http://www.w3.org/2000/svg">
<path d="M19.8342 4.38667C18.7443 3.17275 18.1437 1.61378 18.1441 0H13.2175V19.2889C13.1795 20.3327 12.7278 21.3214 11.9575 22.0468C11.1873 22.7722 10.1586 23.1776 9.08801 23.1778C6.82398 23.1778 4.9426 21.3733 4.9426 19.1333C4.9426 16.4578 7.58929 14.4511 10.3157 15.2756V10.36C4.81505 9.64444 0 13.8133 0 19.1333C0 24.3133 4.40051 28 9.07207 28C14.0784 28 18.1441 24.0333 18.1441 19.1333V9.34889C20.1419 10.7487 22.5404 11.4997 25 11.4956V6.68889C25 6.68889 22.0026 6.82889 19.8342 4.38667Z" fill="#353C65"/>
</svg>
